<svg xmlns="http://www.w3.org/2000/svg" width="34.962" height="34.962" viewBox="0 0 34.962 34.962">
  <g id="Group_4" data-name="Group 4" transform="translate(-412.094 2.898)">
    <path id="Path_14" data-name="Path 14" d="M412.579,20.35c1.349-.038,4.837.092,6.048,0a26.206,26.206,0,0,1,4.848,0c1.209.208,4.373-.159,6.062,0s1.683-.226,4.407,0,7.5,0,7.5,0,4,.1,5.119,0,0,1.6,0,1.6a3.625,3.625,0,0,0-1.784,0c-1.185.224-2.5-.172-3.335,0s-4.021-.074-4.762,0-3.013.017-3.647,0-2.908.09-3.495,0-3.825.091-4.8,0-1.825.131-4.186,0-2.766.044-3.944,0-4.514,0-4.514,0Z" transform="translate(0 -6.543)" fill="#111"/>
    <path id="Path_15" data-name="Path 15" d="M.485.116c1.349-.038,4.837.092,6.048,0a26.206,26.206,0,0,1,4.848,0c1.209.208,4.373-.159,6.062,0s1.683-.226,4.407,0,7.5,0,7.5,0,4,.1,5.119,0,0,1.6,0,1.6a3.625,3.625,0,0,0-1.784,0c-1.185.224-2.5-.172-3.335,0s-4.021-.074-4.762,0-3.013.017-3.647,0-2.908.09-3.495,0-3.824.091-4.8,0-1.825.131-4.186,0-2.766.044-3.944,0S0,1.715,0,1.715Z" transform="translate(428.683 32.064) rotate(-90)" fill="#111"/>
  </g>
</svg>
