<svg xmlns="http://www.w3.org/2000/svg" width="9.485" height="7.935" viewBox="0 0 9.485 7.935">
  <path id="Path_3" data-name="Path 3" d="M28.889,5.477l-.765,1.15-.493,1.161-1.607.271s-1.794-.28-2.063,0,1.574,1.167,1.574,1.167l1.057.389-.568,1.72a5.454,5.454,0,0,0-.489,1.973l1.386-.974a8.6,8.6,0,0,0,1.968-1l1.254,1s1.53,1.475,1.647.974-.748-1.973-.748-1.973l-.9-1.465,1.647-.644s2.03-.2,1.557-.585a10.063,10.063,0,0,0-2.915-.583l-.75-1.432Z" transform="translate(-23.934 -5.477)" fill="#fff"/>
</svg>
