<svg xmlns="http://www.w3.org/2000/svg" width="247.465" height="314.535" viewBox="0 0 247.465 314.535">
  <path id="Exclusion_1" data-name="Exclusion 1" d="M185.96,312.6c-.111,0-.213,0-.31-.007-3.7-.189-15.623-7.55-22.748-11.949-2.6-1.6-4.467-2.758-4.98-2.969-.548-.225-1.729-2.2-4.247-10.3-1.5-4.828-2.879-9.943-3.116-10.885-.032-.128-.1-.193-.194-.193-1,0-5.17,6.93-5.212,7,.005.117.112,2.888-1.055,4.114a1.812,1.812,0,0,1-1.36.58,3.267,3.267,0,0,1-1.22-.273c-3.589-1.469-1.816-6.284-.392-10.152l0-.006c.137-.373.267-.725.39-1.07,1.394-3.9,3.613-17.7,3.635-17.836l-9.512-3.435,5.877-7.787-29.7-12.51-27.985-19.4-37.175-38.9-21.02-37.8c-.095-.221-9.5-22.077-10.138-24.542-.188-.732-1.161-4.095-2.393-8.353l-.006-.02c-3.093-10.69-7.766-26.842-7.8-28.088C5.263,76.074.053,49.388,0,49.118V17.66L2.728,0C5.78,5.042,18.076,22.815,20.041,25.022a11.4,11.4,0,0,1,1.487,2.868c1.316,3.125,3.119,7.4,8.165,8.891a54.193,54.193,0,0,1,9.269,3.43c2.722,1.423,4.29,2.977,4.793,4.753,1.082,3.822,2.888,13.179,2.906,13.273.056.311,5.574,31.1,5.457,34.084-.125,3.179,2.431,12.854,8.427,27.3,6.105,14.716,10.388,28.785,10.431,28.925.139.2,14.006,20.033,15.775,21.932.571.613,2.274,2.8,4.43,5.565l0,0c4.7,6.033,11.14,14.3,12.46,14.8.949.365,3.555,3.748,6.573,7.664,3.135,4.069,6.688,8.68,9.241,11.019,4.958,4.542,19.392,14.388,19.537,14.487l11.563,7.438,10.59,3.457,9.809-19.4,8.827-5.983c-.056.178-6.046,19.27-6.582,21.926-.06.3-.141.667-.236,1.095-.785,3.564-2.419,10.979.236,12.426,2.931,1.6,43.522,22.6,43.931,22.81a68.175,68.175,0,0,1,8.657-.657,19.784,19.784,0,0,1,5.774.657c2.052.663,4.924,2.774,7.88,5.791,2.628,2.682,4.669,5.445,5.081,6.876a61.761,61.761,0,0,1,1.584,6.941c.563,3.552.456,5.951-.318,7.129a1.738,1.738,0,0,1-1.266.819c-3.876.5-19.068,5.053-19.221,5.1l-12.535,5.776C212.559,306.286,191.491,312.6,185.96,312.6Zm-27.327-53.721-3.925,8.276.005.013c.366,1.019,3.583,10.027,3.92,12.517.354,2.618,4.1,10.263,4.135,10.34l10.835,9.607c.061.029,6.214,2.939,11.009,2.94a7.218,7.218,0,0,0,3.4-.711c2.449-1.309,6.2-1.32,9.827-1.33,3.141-.009,6.388-.019,8.657-.9.472-.183.916-.351,1.346-.513,3.993-1.509,6.193-2.34,5.646-5.839a15.32,15.32,0,0,1-.086-4.45,26.832,26.832,0,0,0,.086-4.914c-.255-3.854-2.519-4.27-3.48-4.27a2.754,2.754,0,0,0-.491.039l-19.108-5.317c-.185-.062-18.565-6.257-20.513-7.214s-11.173-8.2-11.266-8.276Z" transform="translate(0.5 1.435)" fill="#fff" stroke="#000" stroke-width="1"/>
</svg>
