<svg xmlns="http://www.w3.org/2000/svg" width="100.5" height="5.075" viewBox="0 0 100.5 5.075">
  <path id="Path_1" data-name="Path 1" d="M0,47s11.943-3.375,12.47-2.838a8.485,8.485,0,0,0,5.257,2.363c2.939.252,7.617-1.336,8.966-1.143S29.107,48.012,31.67,47s5.694-2.832,7.264-2.433,6.1.99,7.849,1.485,3.949-.3,6.028-.67,5.125-.986,5.593,0S65.97,47.821,67.235,47s3.543-2.418,4.464-2.433a34.927,34.927,0,0,1,6.409.815c.787.371,4.194,1.669,5.343,1.618s3.589-1.677,3.971-1.618,5.191,0,5.191,0,4.6.982,5.226,1.143S100,47,100,47v.5a18.55,18.55,0,0,1-3.024,0c-.951-.155-5.917-.552-7.088-.5a8.144,8.144,0,0,0-3.3.827c-.465.364.487.311-1.89.657s-1.391.346-3.452,0-2.233-1.028-4.565-1.111S73.5,47.059,72.545,47s-.971-.816-2.17,0,1.2-.144-1.964.827-3.986.838-5.708.657-1.654-.483-3.66-.657-3.215-2.037-5.085-1.3-.743.578-3.2.848a18.681,18.681,0,0,1-3.973,0c-1.908-.01-4.015.158-4.853-.373s-4-1.894-4.658-.948,1.458.425-1.027.948-3.523.346-4.574.827-2.813,1.1-3.8.657-.182-1.064-1.962-1.111.936-.758-2.623,0-1.969,1.419-4.14,1.111-3.755-.868-5.1-1.111,1.168-.894-2.247-.848-.7.278-4.208.475S0,47.5,0,47.5Z" transform="translate(0.25 -43.888)" fill="#fff" stroke="#111" stroke-width="0.5"/>
</svg>
