<svg xmlns="http://www.w3.org/2000/svg" width="31.669" height="27.703" viewBox="0 0 31.669 27.703">
  <g id="Coin" transform="translate(-45.584 -14.826)">
    <path id="Path_11" data-name="Path 11" d="M59.747,15.852c1.074-.051,6.53,0,6.53,0l5.946,2.041s2.42,2.384,2.32,3.6,1.283,5.035,1.634,6.085-.695,5.843-1.634,6.623-.58,2.411-2.32,3.1-3.189,2.995-3.766,3.54-5.734.5-7.643.676-2.375-.925-3.613-.676-5.577-2.7-5.577-2.7L48.1,34.2s-1.783-3.814-1.535-4.322S48.1,24.537,48.1,24.537l3.519-4.874L54,16.576Z" fill="#c1c1c1" stroke="#070606" stroke-width="2"/>
    <path id="Path_7" data-name="Path 7" d="M51.583,20.1a6.379,6.379,0,0,1,6.4-4.24c5,.2,9.741.215,11.738,2.561s3.761,9.809,2.656,12.305-3.607,7.7-7.918,8.345S55.944,42.1,51.583,37.623s-4.9-5.863-4.8-9.06S51.583,20.1,51.583,20.1Z" fill="#c1c1c1" stroke="#070606" stroke-width="2"/>
  </g>
</svg>