<svg xmlns="http://www.w3.org/2000/svg" width="22.398" height="19.555" viewBox="0 0 22.398 19.555">
  <path id="Path_3" data-name="Path 3" d="M35.109,5.477,33.383,8.071l-1.112,2.618-3.624.611s-4.046-.631-4.653,0,3.55,2.632,3.55,2.632l2.384.877-1.281,3.879a12.3,12.3,0,0,0-1.1,4.45l3.126-2.2a19.4,19.4,0,0,0,4.438-2.255l2.828,2.255s3.451,3.327,3.714,2.2-1.687-4.45-1.687-4.45l-2.03-3.3,3.714-1.452s4.578-.451,3.511-1.319A22.7,22.7,0,0,0,38.586,11.3l-1.691-3.23Z" transform="translate(-23.426 -4.585)" fill="none" stroke="#fff" stroke-width="1" stroke-dasharray="2"/>
</svg>
