<svg xmlns="http://www.w3.org/2000/svg" width="209.514" height="116.276" viewBox="0 0 209.514 116.276">
  <g id="Group_2" data-name="Group 2" transform="translate(3.445 97.577) rotate(-30)">
    <path id="Path_14" data-name="Path 14" d="M668.284,339.377l-9.417-1.069s-3.916-1.013-5.218-1.256-2.513-1.131-4.268-1.086-9.592-1.56-13.746-1.724a93.314,93.314,0,0,1-9.388-1.018s-7.768-1.383-9.115-1.606-3.192-.2-5.244-.55-6.4-1.469-9.495-1.615-9.073-1.558-12.3-1.6-11.276-1.932-12.267-1.932a20.842,20.842,0,0,0-3.548,0c-1.14.2-6.759,1.932-6.759,1.932a11.853,11.853,0,0,0-2.73,3.767c-.64,1.837-1.453,3.347-2.325,5.434s-2.064,1.994-1.346,5.293.176,4.569,1.346,6.359.623,3.671,2.325,4.986,4.087,2.078,5.166,2.794,16.021,3.664,16.021,3.664,9.616,1.466,10.492,1.775,16.934,4.206,16.934,4.206,7.742,2.054,9.888,2.438,6.065.531,8.274,1.318,8.365,2.357,9.11,2.606,3.569.565,5.875,1.27,3.355,1.575,7.106,1.742,4.914.806,8.084,1.1,7.288-.377,8.233-1.1a24.542,24.542,0,0,0,4.141-4.59,32.93,32.93,0,0,0,2.951-4.784c.659-1.37,1.388-4.845,1.945-5.623s.549-6.816.549-6.816-1.886-5.131-2.088-5.862A15.137,15.137,0,0,0,674.9,343.9a12.719,12.719,0,0,0-2.2-2.024C670.692,340.639,668.284,339.377,668.284,339.377Z" transform="translate(-479.007 -318.783)" fill="#fff" stroke="#111" stroke-width="5"/>
    <path id="Path_15" data-name="Path 15" d="M895.888,329s-5.572-1.436-6.7-1.341a18.741,18.741,0,0,1-6.38-.55c-1.838-.7-5.751-.646-7.635-.808s-2.163.325-4.745-.487-6.7-1.053-7.737-1.328a24.333,24.333,0,0,0-3.33-.625,17.931,17.931,0,0,1-3.163-.608c-1.057-.309-3.185-1.16-5.078,1.234s-2.774,3.126-2.823,5.365-.872,5.087,0,6.239a18.4,18.4,0,0,0,3.8,3.89,15.54,15.54,0,0,0,4.1,1.187c.279-.022.976.165,3.612.538a26.492,26.492,0,0,1,6.577,1.348c2.128.849,7.312.658,8.388.972a33.249,33.249,0,0,0,5.875,1.046,37.639,37.639,0,0,1,6.733,1.191,49.737,49.737,0,0,0,5.639.932s-.906-2.783-1.222-4.141a10.431,10.431,0,0,1,0-4.324c.28-.71.786-5.1,2.057-6.482A12.479,12.479,0,0,0,895.888,329Z" transform="translate(-809.643 -316.99)" fill="#fff" stroke="#111" stroke-width="5"/>
    <path id="Path_16" data-name="Path 16" d="M993.494,319.389c-1.6.2-5.71.348-6.783,0s-6.035-.849-6.788-.983a24.466,24.466,0,0,1-5.289-.879,22.731,22.731,0,0,0-5.706-.871l-4.168-1.53h-2.728l-1.269,3.279s0,2.8,0,3.562a27.29,27.29,0,0,0,1.269,4.132l2.728,1.438,11.061,2.134,7.874,2.323s3.866-.749,4.515,0,3.7,1.011,3.7,1.011a31.763,31.763,0,0,1-.818-3.335,13.027,13.027,0,0,1,0-4.393c.24-.691.818-3.31.818-3.31Z" transform="translate(-952.199 -312.343)" fill="#fff" stroke="#111" stroke-width="5"/>
    <path id="Path_17" data-name="Path 17" d="M584.269,363.44s-3.5-3.349-4.682-3.106-3.24-.362-4.7,0-4.345,4.323-5.59,5.935-4.29,4.114-4.628,6.029-.886,4.324-1.071,6.425.3,8.2,0,9.153,1.5,4.4,2.311,4.951,3.846,2.178,4.481,2.7a28.992,28.992,0,0,0,3.875,1.805s7.014-.689,8.034-.914,3.522-4.7,4.134-5.316,2.66-2.632,2.66-4.491.937-7.362.937-7.362a30.082,30.082,0,0,1,0-5.1c.283-.955-.753-1.952-.937-3.01s-.652-4.854-1.289-4.872S584.269,363.44,584.269,363.44Z" transform="translate(-390.595 -339.475)" fill="#fff" stroke="#111" stroke-width="5"/>
    <path id="Path_18" data-name="Path 18" d="M1047.233,310.921s-1.624-3.107-3.028-2.756-3.714.888-4.8,1.754-2.764,1.765-3.316,3.322,0,4.928,0,4.928l1.094,4.162s2.23,2.651,3.036,2.957a16.945,16.945,0,0,0,3.984,0s1.217,1.018,1.986,0a9.766,9.766,0,0,0,1.042-1.619,3.862,3.862,0,0,0-1.042-2.894c-1.178-1.023-2.25-2.941-1.986-3.712s1.986-3.822,1.986-3.822Z" transform="translate(-1035.845 -308.137)" fill="#fff" stroke="#111" stroke-width="5"/>
  </g>
</svg>
