<svg xmlns="http://www.w3.org/2000/svg" width="8.52" height="10.561" viewBox="0 0 8.52 10.561">
  <path id="Path_9" data-name="Path 9" d="M67.865,6.776h4.25s2.642-.191,3.467.384-.822,1.63-1.239,2.219-2.629,1.452-2.629,2.87c0,.947.493.805,1.419,1.535.085.075.838.962.838.962s2.267,1.755,1.442,2.34-1.922-.206-3.3,0a13.238,13.238,0,0,1-4.25,0,1.479,1.479,0,0,1,0-2.34,8.043,8.043,0,0,0,1.651-1.4s1.551-.27,1.452-1.093a3.733,3.733,0,0,0-1.845-2.2c-.7-.346-1.258-2.039-1.258-2.039Z" transform="translate(-67.291 -6.746)" fill="#fff"/>
</svg>
