<svg xmlns="http://www.w3.org/2000/svg" xmlns:xlink="http://www.w3.org/1999/xlink" width="200" height="200" viewBox="0 0 200 200"><defs><clipPath id="b"><rect width="200" height="200"/></clipPath></defs><g id="a" clip-path="url(#b)"><g transform="translate(37.705 46.743)"><g transform="translate(105.438 78.803)"><path d="M-.515,9.766H-2.5V0H-.515Z" transform="translate(10.043 15.046)" fill="#212121"/><path d="M8.337,1.985a6.352,6.352,0,1,0,4.491,1.86,6.31,6.31,0,0,0-4.491-1.86M8.337,0A8.337,8.337,0,1,1,0,8.337,8.337,8.337,0,0,1,8.337,0Z" fill="#212121"/></g><path d="M16.247,27.311H16.22a8.853,8.853,0,0,1-1.987-1.044c-.227-.14-.39-.241-.435-.259s-.151-.192-.371-.9c-.131-.422-.252-.869-.272-.951,0-.011-.009-.017-.017-.017-.088,0-.452.605-.455.612a.591.591,0,0,1-.092.359.158.158,0,0,1-.119.051.285.285,0,0,1-.107-.024c-.314-.128-.159-.549-.034-.887h0l.034-.093a15.858,15.858,0,0,0,.318-1.558l-.831-.3.513-.68L9.77,20.524,7.325,18.829l-3.248-3.4-1.836-3.3c-.008-.019-.83-1.929-.886-2.144-.016-.064-.1-.358-.209-.73v0C.875,8.318.466,6.907.464,6.8.46,6.646,0,4.315,0,4.291V1.543L.238,0C.5.44,1.579,1.993,1.751,2.186a1,1,0,0,1,.13.251,1.157,1.157,0,0,0,.713.777,4.735,4.735,0,0,1,.81.3.747.747,0,0,1,.419.415c.095.334.252,1.151.254,1.16,0,.027.487,2.717.477,2.978a8.441,8.441,0,0,0,.736,2.385c.533,1.286.908,2.515.911,2.527s1.224,1.75,1.378,1.916c.05.054.2.244.387.486h0a10.554,10.554,0,0,0,1.089,1.293,3.658,3.658,0,0,1,.574.67,8.985,8.985,0,0,0,.807.963c.433.4,1.694,1.257,1.707,1.266l1.01.65.925.3.857-1.695.771-.523c0,.016-.528,1.684-.575,1.916-.005.026-.012.058-.021.1-.069.311-.211.959.021,1.086.256.14,3.8,1.974,3.838,1.993a5.956,5.956,0,0,1,.756-.057,1.728,1.728,0,0,1,.5.057,2.015,2.015,0,0,1,.688.506,1.982,1.982,0,0,1,.444.6,5.4,5.4,0,0,1,.138.606.994.994,0,0,1-.028.623.152.152,0,0,1-.111.072c-.339.044-1.666.441-1.679.445l-1.1.5A16.8,16.8,0,0,1,16.247,27.311Zm-2.387-4.693-.343.723h0a10.653,10.653,0,0,1,.342,1.094,5.412,5.412,0,0,0,.361.9l.947.839a2.778,2.778,0,0,0,.962.257.631.631,0,0,0,.3-.062,2,2,0,0,1,.859-.116,2.313,2.313,0,0,0,.756-.078l.118-.045c.349-.132.541-.2.493-.51a1.339,1.339,0,0,1-.008-.389,2.344,2.344,0,0,0,.008-.429c-.022-.337-.22-.373-.3-.373a.241.241,0,0,0-.043,0l-1.669-.465c-.016-.005-1.622-.547-1.792-.63s-.976-.717-.984-.723Z" transform="translate(103.056)" fill="#212121"/><g transform="translate(0 77.414)"><path d="M-.515,27H-2.5V0H-.515Z" transform="translate(19.7 0.318)" fill="#212121"/><path d="M85.616,399.206c8.16,0,16.331-9.106,16.331-9.106H69.309S77.456,399.206,85.616,399.206Z" transform="translate(-67.089 -371.098)" fill="#212121"/><path d="M82.244,398.691a15.782,15.782,0,0,1-6.4-1.509,28.928,28.928,0,0,1-5.411-3.241,38.609,38.609,0,0,1-5.241-4.687l-1.48-1.654H100.8l-1.485,1.655a38.757,38.757,0,0,1-5.252,4.687,29.025,29.025,0,0,1-5.419,3.24A15.807,15.807,0,0,1,82.244,398.691Zm-13.916-9.107a38.53,38.53,0,0,0,3.326,2.787,26.883,26.883,0,0,0,5.023,3.006,12.338,12.338,0,0,0,11.138,0,26.982,26.982,0,0,0,5.032-3.006,38.678,38.678,0,0,0,3.333-2.787Z" transform="translate(-63.717 -369.591)" fill="#212121"/><path d="M118.133,350.737V335.694a1,1,0,0,1,.992-.995h.162l.154.052c.044.015,4.44,1.5,8.778,3.357a49.047,49.047,0,0,1,6.112,3.036,12.08,12.08,0,0,1,2.149,1.6,2.9,2.9,0,0,1,1.044,2.024,2.425,2.425,0,0,1-1.148,1.933,9,9,0,0,1-2.217,1.121,38.886,38.886,0,0,1-6.148,1.57c-4.346.814-8.749,1.236-8.793,1.24Zm1.985-13.648c0,2.776,0,8.938,0,11.455,1.5-.167,4.329-.515,7.185-1.036a41.14,41.14,0,0,0,5.776-1.4,9.566,9.566,0,0,0,1.884-.837,1.524,1.524,0,0,0,.574-.5c-.028-.1-.286-.75-2.408-2.027a49.254,49.254,0,0,0-5.841-2.867C124.494,338.677,121.7,337.65,120.118,337.088Z" transform="translate(-100.933 -334.699)" fill="#212121"/></g><g transform="translate(10.954 0)"><path d="M-.515,23.82H-2.5V0H-.515Z" transform="translate(9.05 0)" fill="#212121"/><path d="M15.483-.412H0V-2H15.483Z" transform="translate(0 13.91)" fill="#212121"/><path d="M11.513-.412H0V-2H11.513Z" transform="translate(1.985 8.749)" fill="#212121"/><path d="M6.749-.412H0V-2H6.749Z" transform="translate(4.367 3.588)" fill="#212121"/></g></g></g></svg>