<svg xmlns="http://www.w3.org/2000/svg" width="7.204" height="8.621" viewBox="0 0 7.204 8.621">
  <g id="Group_1" data-name="Group 1" transform="translate(-5.796 -4.786)">
    <path id="Path_1" data-name="Path 1" d="M2.881.21,2.088,0S.894.437.932.721s-.039.633.055,1.322S.9,2.778.909,3.136a2.649,2.649,0,0,1-.059.641L0,4.424s.366-.3.341,0,.467.856.467.856A4.7,4.7,0,0,0,.987,6.405c.182.681-.436,1.023-.072,1.638s.48.578.48.578H2.435l.445-.529L1.9,7.725a7.125,7.125,0,0,0,0-1.544c-.1-.623-.221-.607-.153-.949s.088-.117,0-.319-.188-.268-.087-.548A8.041,8.041,0,0,0,1.9,3.178c-.009-.03,0-1.135,0-1.135s-.15-.864,0-.983A4.513,4.513,0,0,1,2.435.746H3.2Z" transform="translate(5.796 4.786)" fill="#fff"/>
    <path id="Path_1_-_Outline" data-name="Path 1 - Outline" d="M2.1.237A3.19,3.19,0,0,0,1.16.731a3.031,3.031,0,0,1,.006.372,5.3,5.3,0,0,0,.044.909,1.89,1.89,0,0,1-.037.854.823.823,0,0,0-.039.263,2.878,2.878,0,0,1-.065.7l-.019.077-.5.378a.444.444,0,0,1,.012.156,1.678,1.678,0,0,0,.412.688l.057.065v.086a4.565,4.565,0,0,0,.171,1.066,1.447,1.447,0,0,1-.089.918.674.674,0,0,0-.007.663,2.115,2.115,0,0,0,.333.467H2.33l.171-.2-.847-.316L1.674,7.7a6.925,6.925,0,0,0,0-1.483,3.3,3.3,0,0,0-.115-.49.921.921,0,0,1-.037-.539c.012-.061.023-.108.033-.144L1.538,5c-.015-.035-.032-.067-.048-.1a.655.655,0,0,1-.044-.616A8.38,8.38,0,0,0,1.673,3.18c-.005-.092-.007-.34,0-1.119-.01-.061-.039-.247-.055-.446-.034-.419.005-.624.141-.731A4.5,4.5,0,0,1,2.334.544L2.382.52H2.8L2.734.4,2.1.237M2.088,0l.793.21L3.2.746H2.435A4.513,4.513,0,0,0,1.9,1.06c-.15.119,0,.983,0,.983s-.009,1.1,0,1.135a8.041,8.041,0,0,1-.24,1.187c-.1.279,0,.346.087.548s.067-.023,0,.319.052.326.153.949a7.125,7.125,0,0,1,0,1.544l.982.366-.445.529H1.395s-.116.039-.48-.578.254-.957.072-1.638A4.7,4.7,0,0,1,.809,5.28S.317,4.721.341,4.424C.361,4.18.118,4.337.031,4.4l.82-.624a2.649,2.649,0,0,0,.059-.641c-.011-.359.172-.4.078-1.094S.97,1.005.932.721,2.088,0,2.088,0ZM.031,4.4,0,4.424Z" transform="translate(5.796 4.786)"/>
    <path id="Path_2" data-name="Path 2" d="M2.881.21,2.088,0S.894.437.932.721s-.039.633.055,1.322S.9,2.778.909,3.136a2.649,2.649,0,0,1-.059.641L0,4.424s.366-.3.341,0,.467.856.467.856A4.7,4.7,0,0,0,.987,6.405c.182.681-.436,1.023-.072,1.638s.48.578.48.578H2.435l.445-.529L1.9,7.725a7.125,7.125,0,0,0,0-1.544c-.1-.623-.221-.607-.153-.949s.088-.117,0-.319-.188-.268-.087-.548A8.041,8.041,0,0,0,1.9,3.178c-.009-.03,0-1.135,0-1.135s-.15-.864,0-.983A4.513,4.513,0,0,1,2.435.746H3.2Z" transform="translate(13 13.407) rotate(180)" fill="#fff"/>
    <path id="Path_1_-_Outline-2" data-name="Path 1 - Outline" d="M2.1.237A3.19,3.19,0,0,0,1.16.731a3.031,3.031,0,0,1,.006.372,5.3,5.3,0,0,0,.044.909,1.89,1.89,0,0,1-.037.854.823.823,0,0,0-.039.263,2.878,2.878,0,0,1-.065.7l-.019.077-.5.378a.444.444,0,0,1,.012.156,1.678,1.678,0,0,0,.412.688l.057.065v.086a4.565,4.565,0,0,0,.171,1.066,1.447,1.447,0,0,1-.089.918.674.674,0,0,0-.007.663,2.115,2.115,0,0,0,.333.467H2.33l.171-.2-.847-.316L1.674,7.7a6.925,6.925,0,0,0,0-1.483,3.3,3.3,0,0,0-.115-.49.921.921,0,0,1-.037-.539c.012-.061.023-.108.033-.144L1.538,5c-.015-.035-.032-.067-.048-.1a.655.655,0,0,1-.044-.616A8.38,8.38,0,0,0,1.673,3.18c-.005-.092-.007-.34,0-1.119-.01-.061-.039-.247-.055-.446-.034-.419.005-.624.141-.731A4.5,4.5,0,0,1,2.334.544L2.382.52H2.8L2.734.4,2.1.237M2.088,0l.793.21L3.2.746H2.435A4.513,4.513,0,0,0,1.9,1.06c-.15.119,0,.983,0,.983s-.009,1.1,0,1.135a8.041,8.041,0,0,1-.24,1.187c-.1.279,0,.346.087.548s.067-.023,0,.319.052.326.153.949a7.125,7.125,0,0,1,0,1.544l.982.366-.445.529H1.395s-.116.039-.48-.578.254-.957.072-1.638A4.7,4.7,0,0,1,.809,5.28S.317,4.721.341,4.424C.361,4.18.118,4.337.031,4.4l.82-.624a2.649,2.649,0,0,0,.059-.641c-.011-.359.172-.4.078-1.094S.97,1.005.932.721,2.088,0,2.088,0ZM.031,4.4,0,4.424Z" transform="translate(13 13.407) rotate(180)"/>
  </g>
</svg>
