<svg xmlns="http://www.w3.org/2000/svg" width="42.014" height="63.772" viewBox="0 0 42.014 63.772">
  <g id="Group_3" data-name="Group 3" transform="translate(-417.857 -83.468)">
    <path id="Path_12" data-name="Path 12" d="M434.632,111.864s-4.333-7.224-5.156-8.931-2.739-6.692-2.739-6.692l-4.549-7.227-2.22-2.818s5.283.158,6.769-.724,5.741-.563,5.741-.563,6.2-1.026,6.58,0-5.081,4.105-5.081,4.105l-5.3,4,2,4.813s2.284,3.118,2.4,5.1,4.806,7.776,4.806,7.776Z" fill="#fff" stroke="#070606" stroke-width="2"/>
    <path id="Path_13" data-name="Path 13" d="M435.338,114.056v9.322s.181,4.174,1.591,5,4.046-1.707,4.046-1.707l3.289,4.36a25.639,25.639,0,0,1,3.522,4.673,23.206,23.206,0,0,0,2.8,4.059L453.3,144.2s1.956,3.171,2.53-1.658c0,0-4.191-6.348-5.251-7.775a58.624,58.624,0,0,1-3.078-5.354l-4.1-4.659,2.63-2.411s1.614-1.686,0-2.806a51.727,51.727,0,0,0-5.063-2.791Z" transform="translate(3 1)" fill="#111" stroke="#111" stroke-width="2"/>
  </g>
</svg>
