<svg xmlns="http://www.w3.org/2000/svg" width="9.317" height="10.223" viewBox="0 0 9.317 10.223">
  <g id="Group_2" data-name="Group 2" transform="translate(-39.271 -5.142)">
    <path id="Path_4" data-name="Path 4" d="M45.1,11.152s-.371.218-1.612-.351a5.464,5.464,0,0,1-1.881-1.377s-.68-.46-.519-1.046-.142-1.81.519-2,1.928-1.049,2.237-1.136-.25-.165,1.256,0,3.852.61,3.877,1.136.367,1.429,0,2-.2,1.314-1.083,1.864a4.105,4.105,0,0,1-1.907.559Z" transform="translate(-1)" fill="#fff"/>
    <path id="Path_5" data-name="Path 5" d="M45.563,8.837a15.946,15.946,0,0,1,1.331,2.137,9.966,9.966,0,0,0,.561,1.182,13.856,13.856,0,0,0,.713,1.309,5.9,5.9,0,0,1,.419,1.255s-.955-.176-1.133-.406a2.336,2.336,0,0,0-.82-.44l-.278,1.118-.795-.678a8.316,8.316,0,0,1-.481-1.208,3.687,3.687,0,0,0-.244-.95,8,8,0,0,1-.47-1.182,7.251,7.251,0,0,0-.473-1.193,2.908,2.908,0,0,0-.294.99L43,12.334l-.043.126a7.312,7.312,0,0,0-.445,1.641,4.688,4.688,0,0,1-.758,1.265L41.6,13.7l-.276-.887a3.131,3.131,0,0,1-.823.887c-.579.437-.706.877-1,.78s-.306-1.487,0-1.667.174-.316.791-.818.564-.722,1.035-1.221a3.988,3.988,0,0,0,.655-.99,10.249,10.249,0,0,1,.789-.944c.226-.269-.549-.723-.549-.723Z" fill="#fff"/>
    <path id="Path_6" data-name="Path 6" d="M43.12,6.2c.052-.006,1.009.072,1.093.081a7.238,7.238,0,0,1,1.481.378c.04.109.506.386.537.74a3.606,3.606,0,0,1,.142,1.056c-.076.348.246.564-.236.847a2.462,2.462,0,0,1-1.537.3,7.55,7.55,0,0,1-1.48,0c-.723-.078-1.259-.038-1.454-.566s-.828-1.184-.491-1.406.873-1.044.937-.969S43.12,6.2,43.12,6.2Z" fill="#111"/>
  </g>
</svg>
