<svg xmlns="http://www.w3.org/2000/svg" width="9.148" height="8.568" viewBox="0 0 9.148 8.568">
  <g id="Group_3" data-name="Group 3" transform="translate(-50.282 -6.776)">
    <path id="Path_7" data-name="Path 7" d="M59.276,7.11c-.159-.252-1.387-.293-1.74-.254s-1.27-.2-1.395,0,.181.617.181.617.531.411.5.719a2.853,2.853,0,0,0,0,.585l-1,1.182-.79.661-.41.487-.576.833.986.523a7.627,7.627,0,0,1,1.288-1.355,3.3,3.3,0,0,0,.928-.965,6.7,6.7,0,0,1,.7-.719s.451.621.854.651c0,0,.426.272.568,0s-.023-.724,0-1.089a2.8,2.8,0,0,0,0-.794C59.321,7.676,59.435,7.362,59.276,7.11Z" fill="#eee"/>
    <path id="Path_8" data-name="Path 8" d="M55.222,6.983c-.837-.007-.823.007-1.59,0a7.253,7.253,0,0,0-1.356,0,1.726,1.726,0,0,1-.812.209c-.5,0-.5-.09-.743,0a.681.681,0,0,0-.409.629,8.887,8.887,0,0,0,0,1.411,2.955,2.955,0,0,1,.135,1.086,11.258,11.258,0,0,0,0,1.5c-.009.156.025.339,0,.684l.274,2.568.2.212c.044.1.325.056,1.209,0s.463-.145,1.222-.212a12.685,12.685,0,0,1,2.343,0,5.317,5.317,0,0,0,1.951.212c.452-.169.785-.015,1.215-.212s.127-.793.206-1.351-.137-.238,0-.966a2.644,2.644,0,0,0,0-1.5c-.142-.366.447-.744-.206-.732s-1.375-.286-1.6,0-.023.45.083.732.139.131.1.889.157.739.112,1.122.273.917-.371.94a7.625,7.625,0,0,1-2.845.072c-1.36-.3-.868-.136-.987-.072s-1.61.277-1.735-.2A3.781,3.781,0,0,1,51.465,12c.21-.8-.063-1.257,0-1.684s-.164-.232-.124-1.086-.1-.629.124-.82-.682.106,1.122,0,2.51-.161,2.635-.179.476-.412.476-.412Z" fill="#eee"/>
  </g>
</svg>
