<svg xmlns="http://www.w3.org/2000/svg" width="283.007" height="5.475" viewBox="0 0 283.007 5.475">
  <g id="Group_1" data-name="Group 1" transform="translate(-53.916 -29.316)">
    <path id="Path_1" data-name="Path 1" d="M53.929,27.488c.241-.794,2.969-1.442,4.01-1.686s3.139-1.024,4.017-.818a1.7,1.7,0,0,1,1.162.818v.763h4.438s3.766-.664,4.834,0,6.033,0,6.033,0,4.2-.353,5.453,0,6.224,0,6.224,0h13.6s3.136-.114,4.3,0,3.865-.185,6.406,0,12.169,0,12.169,0,4.292.135,7.423,0,5.587.283,10.412,0,10.824,0,10.824,0,3.375.076,7.065,0,7.257,0,7.257,0h6.4s3.692.009,4.959,0,3.307-.109,5.176,0,0,2.415,0,2.415-2.359.11-5.176,0,.122.166-4.959,0-10.134,0-10.134,0-5.983.068-8.3,0-11.818.078-13.108,0-6.332-.077-8.85,0-5.706-.225-7.558,0-4.715-.175-6.864,0-6.732,0-6.732,0-7.5.2-10.71,0-4.063.125-6.8,0-8.291.072-9.63,0-6.142.063-8.853,0-7.224.123-8.51,0-5.215,0-5.215,0H63.118v1.446s-2-.319-3.657-.578a6.06,6.06,0,0,1-2.487-.868S53.688,28.283,53.929,27.488Z" transform="translate(0 4.366)" fill="#fff"/>
    <path id="Path_2" data-name="Path 2" d="M53.929,27.488c.241-.794,2.969-1.442,4.01-1.686s3.139-1.024,4.017-.818a1.7,1.7,0,0,1,1.162.818v.763h4.438s3.766-.664,4.834,0,6.033,0,6.033,0,4.2-.353,5.453,0,6.224,0,6.224,0h13.6s3.136-.114,4.3,0,3.865-.185,6.406,0,12.169,0,12.169,0,4.292.135,7.423,0,5.587.283,10.412,0,10.824,0,10.824,0,3.375.076,7.065,0,7.257,0,7.257,0h6.4s3.692.009,4.959,0,3.307-.109,5.176,0,0,2.415,0,2.415-2.359.11-5.176,0,.122.166-4.959,0-10.134,0-10.134,0-5.983.068-8.3,0-11.818.078-13.108,0-6.332-.077-8.85,0-5.706-.225-7.558,0-4.715-.175-6.864,0-6.732,0-6.732,0-7.5.2-10.71,0-4.063.125-6.8,0-8.291.072-9.63,0-6.142.063-8.853,0-7.224.123-8.51,0-5.215,0-5.215,0H63.118v1.446s-2-.319-3.657-.578a6.06,6.06,0,0,1-2.487-.868S53.688,28.283,53.929,27.488Z" transform="translate(390.84 59.742) rotate(180)" fill="#fff"/>
  </g>
</svg>
