<svg xmlns="http://www.w3.org/2000/svg" width="416.931" height="323.09" viewBox="0 0 416.931 323.09">
  <g id="Group_1" data-name="Group 1" transform="translate(-48.727 -148.946)">
    <path id="Path_1" data-name="Path 1" d="M51.583,224.022s5.445,26.282,7.546,30.96,5.357,29.838,7.328,33.741,1.206,17.924,6.71,33.913,2.043,35.42,2.043,35.42l2.2,20.675s73.779,46.754,81.35,50.16,51.5,34.372,53.977,36.348,30.436-29.606,37.149-31.889,35.315-30.941,42.306-31.041,40.4-26.408,42.463-26.783,33.121-21.935,38.433-21.761,19.13-12.792,28.026-12.92,35.525-18.208,35.525-18.208V269.626s2.666-24.113,4.738-26.666,6.507-27.205,8.906-30.571S462.389,181.5,462.389,181.5s-25.226-6.389-27.921-7-30.557-6.129-30.557-6.129-21.4-1.575-23.269-2.767-27.379-3.167-30.193-3.91-31.806-4.584-33.752-4.584-22.035-5.577-22.035-5.577-39.03,10.7-41.192,10.161-43.486,12.806-43.486,12.806l-42.924,12.229L130.2,198.165l-28.862,7.9s-26.166,8.228-28.17,8.731S51.583,224.022,51.583,224.022Z" fill="#fff" stroke="#111" stroke-linecap="round" stroke-linejoin="round" stroke-width="5"/>
    <path id="Path_3" data-name="Path 3" d="M76.869,222.269s54.669-16.215,56.414-16.283,53.387-17.36,58.387-17.3S245.931,173.6,245.931,173.6l42.613-12.961s5.147,1.344,7.473,0,53.014,6.715,53.014,6.715l57.96,9.116,28.174,4.879s-39.668,10.886-42.745,11.865-21.13,9.052-21.13,9.052l-33.353,10.047s-29,13.2-35.623,14.176-39.341,16.039-39.341,16.039-42.144,19.114-43.918,19.359-18.09,10.028-18.09,10.028S184.7,260.435,175.18,259.306s-39.583-16.9-41.9-16.78-21.6-5.36-21.6-5.36-12.831-7.156-15.672-7.3S76.869,222.269,76.869,222.269Z" fill="#fff" stroke="#070606" stroke-linecap="round" stroke-linejoin="round" stroke-width="5"/>
    <path id="Path_5" data-name="Path 5" d="M212.962,465.327S242.7,438.19,245.8,436.717s22.365-14.087,22.365-14.087,4.64-13.156,9.286-14.384,11.726-7.013,14.5-8.235,19.355-2.108,24.128-11.032,27.584-19.354,30.478-21.81S368.6,352.228,372.322,352.3s16.908-8.1,16.908-8.1l19.8-4.3s14.91-8.609,17.469-10.172,10.049-7.124,10.049-7.124,1.08-43.222,0-48.257.537-15.419,2.5-17.779,3.274-20.378,3.274-20.378,3.153-14.135,6.122-18.855,9.641-20.688,9.641-20.688l2.606-14.463-24.141,6.933S381.541,205.463,379,207.718,333.8,220.57,332.974,223.13s-41.268,12.26-41.02,16.011-26.612,10.972-30.21,14.411-19.783,10.01-22.857,11.777-22.651,11.412-25.925,13.258-6.667,14.24-6.667,14.24-4.955,10.026-4.1,12.136,7.376,50.216,7.475,53.512,0,38.446,0,38.446,2.727,34.288,3.295,36.631,0,15.765,0,15.765Z" fill="none" stroke="#070606" stroke-linecap="round" stroke-linejoin="round" stroke-width="5"/>
    <path id="Path_6" data-name="Path 6" d="M132.9,254.243c1.623,1.262,22.511,6.8,24.148,8.392s17.241,9.419,20.867,10.959,24.632,5.883,24.632,5.883.38,28.544,0,30.255,5.443,32.581,6.738,37.6,2.754,28.379,2.744,32.468-.608,23.38,0,30.15-.779,23.019,0,25.785,0,30.788,0,30.788-11.395-10.34-13.793-10.8-30.7-19.987-30.7-19.987-19.172-13.267-25.6-15.342-11.184-5.786-20.221-13.478-11.028-11.093-20.305-13.614S90.3,389.827,88.48,387.115s-8.852-3.667-10.173-7.31-4.3-18.463-2.7-25.206,3.982-17.818,2.7-21.562-2.486-15.527-6.435-23.305-4.9-19.548-7.123-27.01-.013-24.014-2.9-28.479-8.757-17.648-8.1-21.086-3.535-7.344,0-7.127,19.766,5.043,21.864,7.127,25.8,7.939,25.8,7.939l18.011,7.436Z" fill="none" stroke="#070606" stroke-linecap="round" stroke-linejoin="round" stroke-width="5"/>
  </g>
</svg>
