<svg xmlns="http://www.w3.org/2000/svg" width="31.619" height="13.527" viewBox="0 0 31.619 13.527">
  <g id="Group_2" data-name="Group 2" transform="translate(-87.257 -22.474)">
    <path id="Path_8" data-name="Path 8" d="M88.639,33.2l5.094,2.241s6.329-.172,7.165,0a44,44,0,0,0,4.416,0c2,.03,9.681,0,9.681,0l3.381-4.075s-4.513,2.106-5.323,1.835a43.063,43.063,0,0,0-7.739,0c-1.952.188-5.159.52-7.029,0s-6.224-1.835-6.224-1.835H88.639Z" fill="#b54f03" stroke="#111" stroke-linejoin="round" stroke-width="1"/>
    <path id="Path_9" data-name="Path 9" d="M88.639,29.675s-1.944-2.184,0-3.036,3.015-1.823,4.673-2.128,2.5-.62,5.99-1.508,6.47-.026,8.011,0,5.345-.185,7.171,1.508c.674.624,2.355,1.137,3.251,2.128.972,1.071-.433,3.719,0,4.476.686,1.2-3.251,1.526-3.251,1.526h-13.2a11.575,11.575,0,0,0-3.643,0c-2.322.3-6.438-1.526-6.438-1.526H88.639Z" transform="translate(0 0.34)" fill="#b54f03" stroke="#111" stroke-linejoin="round" stroke-width="1"/>
  </g>
</svg>
