<svg xmlns="http://www.w3.org/2000/svg" width="93.459" height="92.034" viewBox="0 0 93.459 92.034">
  <g id="Group_1" data-name="Group 1" transform="translate(-3.153 -4.849)">
    <path id="Exclusion_1" data-name="Exclusion 1" d="M49.829,92.034H39.376c-.062-.011-6.223-1.129-7.173-1.753-.05-.033-5.064-3.312-6.709-3.474-.923-.091-2.654-1.184-4.328-2.241-1.02-.644-1.984-1.253-2.752-1.632a37.961,37.961,0,0,1-4.744-3.229c-.868-.652-1.618-1.214-1.981-1.42a7.107,7.107,0,0,1-1.8-2.209,23.393,23.393,0,0,0-1.48-2.11,15.8,15.8,0,0,1-3.545-6.305c-.141-.586-.269-1.2-.393-1.792-.446-2.136-.868-4.154-1.85-4.954C1.362,59.886.344,55.35.237,54.034.185,53.4.215,52.323.246,51.182c.037-1.347.079-2.874-.009-3.914-.156-1.843-.446-7.165,0-8.012.435-.825,2.367-7.45,2.387-7.517l1.109-5.291L7,22.112l1.414-4.236,4.677-4.517c.042-.049,4.258-4.94,5.325-4.974.584-.019,1.415-.72,2.219-1.4a6.894,6.894,0,0,1,1.9-1.314,5.476,5.476,0,0,0,1.442-.8,8.12,8.12,0,0,1,2.767-1.36C28.768,3.022,37.337.336,37.424.309a5.939,5.939,0,0,0,1.76.308A2.5,2.5,0,0,0,40.489.309C40.828.1,42.5,0,45.459,0c5.034,0,12.159.305,12.23.308l6.376,1.309c0,.021.3,1.981,1.511,1.981a1.387,1.387,0,0,0,.457-.084,1.121,1.121,0,0,1,.369-.055c1.878,0,6.287,3.364,6.331,3.4l3.3,1.527L81.1,13.359l2.292,3.18,4.467,6.729a31.736,31.736,0,0,0,2.128,4.873,30.221,30.221,0,0,1,1.987,3.6v5.635l1.489,9.894v6.766l-3.477,8.772-2.128,6.406-3.46,5.854-3.3,4.953L76.03,82.934l-10,5.479-8.344,1.868-7.86,1.753ZM18.937,78.586c1.811,0,5.161,4.7,5.195,4.745.049.031,4.9,3.146,5.7,3.193a24.344,24.344,0,0,1,3.238,1.105,24.751,24.751,0,0,0,4.018,1.335h.007c.259,0,1.456-.005,3.558-.005,3.305,0,7.783,0,8.647.005h.018c.1-.021,9.885-2.07,11.058-2.44s7.026-3.165,7.085-3.193,6.18-3.5,7.335-4.729,4.288-5.037,4.319-5.075,3.376-3.032,3.5-4.312a5.149,5.149,0,0,1,1.514-2.24,8.8,8.8,0,0,0,1.889-2.637c.336-.957.633-1.852.895-2.641.246-.743.459-1.384.646-1.9.38-1.055,3.1-7.418,3.22-7.689V44.31c-.024-.093-2.448-9.381-3.22-11.123a19.642,19.642,0,0,1-.974-4.008,16.036,16.036,0,0,0-.567-2.561,32.2,32.2,0,0,0-2.208-3.69c-.543-.835-1.012-1.556-1.2-1.91-.705-1.355-2.458-4.6-3.5-5.439a13.943,13.943,0,0,1-1.745-2.01,15.032,15.032,0,0,0-2.574-2.824,68.877,68.877,0,0,1-5.339-5.007L55.469,2.954a37.514,37.514,0,0,0-4.695-.324,16.272,16.272,0,0,0-3.546.324,9.687,9.687,0,0,1-2.194.232A20.67,20.67,0,0,1,42.535,3l-.229-.028a16.221,16.221,0,0,0-1.833-.158,2.936,2.936,0,0,0-1,.14A33.974,33.974,0,0,1,33,4.684,18.084,18.084,0,0,0,28.355,6.3a13.7,13.7,0,0,1-2.382.939c-1.712.4-1.84,2.443-1.841,2.463l-6.6,3.306-3.209,3.675L11.8,21.018l-3.6,5.6c-.018.043-1.849,4.363-3.306,5.474-1.044.8-.677,2.259-.323,3.675A10.2,10.2,0,0,1,4.9,37.407c.055.758.01,2.076-.033,3.35A19.142,19.142,0,0,0,4.9,44.31a58.492,58.492,0,0,1,0,6.659c.018.073,1.787,7.392,1.475,8.824s.383,4.037,1.831,4.544a5.914,5.914,0,0,1,2.2,2.149,10.922,10.922,0,0,1,1.4,2.728,17.463,17.463,0,0,0,1.672,3.356,7.981,7.981,0,0,0,2.332,2.8c.515.224.81.9,1.1,1.549.368.837.748,1.7,1.6,1.7a1.446,1.446,0,0,0,.263-.025A.961.961,0,0,1,18.937,78.586Z" transform="translate(3.154 4.849)" fill="#eee"/>
  </g>
</svg>
