<svg xmlns="http://www.w3.org/2000/svg" width="429.648" height="484.066" viewBox="0 0 429.648 484.066">
  <g id="Group_1" data-name="Group 1" transform="translate(-50.7 -8.608)">
    <g id="Union_1" data-name="Union 1" transform="translate(65.713 25.002)" fill="#eee">
      <path d="M 93.38062286376953 460.1723327636719 C 86.51181030273438 460.1723327636719 84.05812072753906 459.7969665527344 82.32568359375 459.1913146972656 C 82.32681274414062 459.1919860839844 82.32644653320312 459.1923217773438 82.32450866699219 459.1923217773438 C 82.26521301269531 459.1923217773438 80.73249053955078 458.8918151855469 75.5731201171875 458.8918151855469 C 67.63724517822266 458.8918151855469 57.73074340820312 459.5882568359375 57.66286849975586 459.593017578125 L 56.83518218994141 459.6511535644531 L 56.01449584960938 459.5268859863281 L 22.50655746459961 454.45263671875 L 16.906494140625 453.6046447753906 L 16.18993186950684 447.9873352050781 C 16.18993186950684 447.9873352050781 13.83718204498291 429.543701171875 13.45761966705322 425.4880065917969 C 13.19905757904053 422.7190246582031 13.25805759429932 421.2846374511719 13.34530735015869 419.3792114257812 C 13.39430713653564 418.3085021972656 13.45324516296387 417.0402526855469 13.42568206787109 415.010009765625 C 13.40818214416504 413.7026977539062 12.97293281555176 412.9377746582031 11.9901819229126 411.3319396972656 C 11.23787021636963 410.1026306152344 10.30155754089355 408.5728149414062 9.738932609558105 406.6561279296875 C 8.862557411193848 403.6707153320312 9.347681999206543 401.2087097167969 9.668620109558105 399.57958984375 C 9.90805721282959 398.364501953125 9.946744918823242 398.1143188476562 9.746119499206543 397.4392700195312 C 8.550994873046875 393.4143981933594 9.098995208740234 390.1114501953125 9.461557388305664 387.9259033203125 C 9.560870170593262 387.327392578125 9.696869850158691 386.5077514648438 9.674994468688965 386.2484436035156 C 9.464744567871094 386.0038757324219 8.698369979858398 385.0802001953125 7.926557540893555 384.0453796386719 C 4.712932586669922 379.736572265625 -0.1435051262378693 373.2251281738281 2.911307334899902 366.2165832519531 C 2.907932281494141 366.0248413085938 2.676182270050049 365.1456909179688 2.522807359695435 364.5640258789062 C 1.968969106674194 362.4629516601562 0.9695495963096619 358.6714782714844 2.913814544677734 354.755859375 C 3.249605655670166 352.3538818359375 2.780959844589233 345.2566528320312 2.549869775772095 341.7577514648438 C 2.329402685165405 338.4192199707031 2.202368259429932 336.3601379394531 2.216167688369751 334.8636474609375 C -0.439506858587265 326.3221130371094 -0.5342121720314026 325.0682373046875 -0.4634059369564056 323.8639831542969 C -0.4687367677688599 323.8765563964844 -0.4756936132907867 323.8827514648438 -0.4845017194747925 323.8827514648438 C -0.6136773824691772 323.8829345703125 -1.143337845802307 322.5513916015625 -2.852817535400391 320.3597717285156 C -7.559692859649658 314.3242492675781 -7.507255077362061 307.9737548828125 -7.484817504882812 305.2620239257812 C -7.877880096435547 298.0583801269531 -1.356380105018616 291.7591247558594 6.473057270050049 291.1724548339844 C 8.580057144165039 291.0150756835938 12.33524513244629 289.5191955566406 13.72505760192871 288.8610229492188 L 18.9067440032959 286.4068298339844 L 22.63418197631836 290.7634582519531 C 24.58411979675293 293.0425720214844 29.04749488830566 298.9952087402344 28.37943267822266 305.0297546386719 L 28.14874458312988 306.8933410644531 C 27.94330787658691 308.4410095214844 27.9218692779541 308.6028137207031 28.32411956787109 311.0309448242188 C 29.42030715942383 317.6471252441406 26.17055702209473 323.207763671875 24.02012062072754 326.8873291015625 L 23.44412040710449 327.8793334960938 C 23.44062232971191 328.0606689453125 23.51734733581543 328.8166198730469 23.6624698638916 329.7017211914062 L 26.79104423522949 332.1749572753906 C 34.64882278442383 333.5918579101562 43.91938781738281 335.8255004882812 48.07610321044922 338.9447937011719 C 50.32416152954102 339.7438354492188 57.48930740356445 340.3095397949219 61.83462142944336 340.6526489257812 C 66.65962219238281 341.0335693359375 70.82656097412109 341.3625183105469 73.82880401611328 342.0224609375 L 76.47743988037109 342.6387939453125 C 76.51692962646484 338.5231323242188 76.56671905517578 331.7372741699219 76.45649719238281 330.0148315429688 C 76.37155914306641 328.6784362792969 76.38899230957031 326.720458984375 76.42868041992188 324.142822265625 C 76.46862030029297 321.5491943359375 76.52043151855469 318.2395629882812 76.44261932373047 314.220947265625 C 76.35868072509766 309.8623962402344 76.38924407958984 304.32177734375 76.42137145996094 298.6842041015625 C 76.44630432128906 294.3050842285156 76.47180938720703 289.8662719726562 76.44142913818359 285.8974609375 C 76.41818237304688 282.822509765625 76.68018341064453 278.7638854980469 76.96811676025391 274.4629516601562 C 77.34837341308594 268.7825622558594 78.05612182617188 258.2093811035156 77.0211181640625 255.5865783691406 C 74.18927764892578 248.821533203125 75.51060485839844 242.5252838134766 76.45989227294922 239.5565948486328 L 76.46520233154297 239.1861419677734 L 75.76735687255859 239.1861419677734 C 71.52686309814453 240.0023956298828 67.15122985839844 241.1504669189453 65.99430847167969 241.7620697021484 C 61.86799621582031 244.1309509277344 55.22893142700195 244.6748962402344 52.56705856323242 244.7982025146484 L 42.58830642700195 245.2605133056641 L 44.92043304443359 235.5494537353516 C 45.21799468994141 234.5167083740234 45.89012145996094 232.3751373291016 46.94187164306641 230.1249542236328 C 48.96644592285156 225.7940979003906 51.43416595458984 223.0336456298828 54.46310043334961 221.7210540771484 C 54.91384887695312 221.2904510498047 56.0461540222168 220.0877990722656 58.05268096923828 217.2339477539062 C 59.33720397949219 215.4078521728516 60.49320220947266 213.5947265625 61.17526626586914 212.4987487792969 L 63.84268188476562 201.4476318359375 C 64.41342926025391 199.2861938476562 67.05661773681641 189.2864532470703 67.75193023681641 186.2195129394531 C 67.979248046875 184.8881378173828 67.76467895507812 179.6525115966797 67.64942932128906 176.8397674560547 C 67.46449279785156 172.3028259277344 67.38824462890625 170.0643920898438 67.65943145751953 168.3593902587891 C 67.75355529785156 167.7756958007812 67.91880798339844 166.9987640380859 68.07099151611328 166.3145751953125 C 68.30255889892578 165.2643280029297 68.86288452148438 162.7261199951172 68.81001281738281 161.4765625 C 66.6468505859375 158.5286712646484 63.27812194824219 151.8520812988281 58.77798461914062 141.5915985107422 L 51.32899475097656 129.4647064208984 L 50.98418426513672 128.9033203125 L 50.74061965942383 128.28564453125 C 50.6648063659668 128.09326171875 50.02993392944336 126.5265731811523 49.03987121582031 124.8017044067383 C 47.75643157958984 122.5645141601562 46.75668334960938 121.6147613525391 46.47968292236328 121.437385559082 C 42.88124465942383 119.5371398925781 40.61143112182617 116.960823059082 39.34855651855469 115.1384506225586 C 37.85580825805664 112.9858856201172 37.26718139648438 111.1862640380859 37.164306640625 110.8473892211914 L 32.90549468994141 96.81269836425781 L 46.77705764770508 101.5761413574219 L 64.71949768066406 107.7375793457031 L 76.67760467529297 113.1243286132812 L 78.8514404296875 113.1243286132812 C 78.83121490478516 111.4521255493164 78.82382965087891 109.8920745849609 78.85190582275391 108.7389450073242 C 78.29139709472656 107.774284362793 77.69938659667969 106.6602020263672 77.00787353515625 104.9838256835938 C 75.11131286621094 100.382568359375 76.17174530029297 96.00474548339844 78.46036529541016 92.75177764892578 C 78.52593231201172 91.80092620849609 78.71559906005859 90.81591796875 79.06165313720703 89.821044921875 L 79.01011657714844 89.46614074707031 C 78.69305419921875 87.49463653564453 78.16236877441406 84.19495391845703 79.06562042236328 80.19820404052734 C 79.50186920166016 78.26557922363281 79.23761749267578 73.40182495117188 79.062744140625 70.18338775634766 C 78.90243530273438 67.23307800292969 78.78186798095703 64.52913665771484 78.89586639404297 62.7130126953125 L 79.51880645751953 52.78576278686523 L 88.89168548583984 56.11539077758789 C 90.13912200927734 56.55851364135742 101.2236785888672 60.53107452392578 106.2387466430664 63.51963806152344 C 109.3619918823242 65.38157653808594 111.3387451171875 68.24639129638672 111.8057479858398 71.58695220947266 C 112.4305267333984 76.05569458007812 110.1909103393555 79.73348236083984 108.7208786010742 81.60317993164062 L 112.887809753418 87.31670379638672 L 114.1688079833984 89.07320404052734 L 114.3119354248047 91.24245452880859 C 114.9703674316406 101.2243270874023 114.2795562744141 103.4272613525391 113.9845581054688 104.3679504394531 C 112.8278045654297 108.0495147705078 109.4697418212891 110.4257659912109 105.4282455444336 110.4258880615234 C 103.7150268554688 110.4259719848633 102.0595016479492 109.9977951049805 100.8329467773438 109.5699005126953 C 100.9611358642578 110.3296890258789 101.1374130249023 111.2310943603516 101.3761215209961 112.2998886108398 C 101.6787033081055 113.7133865356445 102.2213973999023 116.7850799560547 102.7265014648438 119.7309951782227 C 102.7409439086914 119.7428665161133 102.7554016113281 119.7547988891602 102.7697448730469 119.7667007446289 C 102.8256225585938 119.8131408691406 104.2008056640625 120.9167022705078 109.1239318847656 121.7413864135742 C 109.6706161499023 121.8341979980469 110.3896789550781 121.853385925293 111.275993347168 121.853385925293 C 112.1039047241211 121.853385925293 112.9113006591797 121.8247680664062 113.5885391235352 121.789794921875 L 114.9629211425781 120.9147415161133 C 118.0379409790039 106.4028701782227 119.5165023803711 104.8242797851562 120.719367980957 103.5408248901367 C 121.2235565185547 102.4975128173828 124.461555480957 93.99919891357422 125.5255584716797 91.20657348632812 L 126.4258041381836 88.85995483398438 C 126.5454940795898 87.96007537841797 126.4688110351562 83.46363830566406 126.0308074951172 76.01782989501953 L 125.9128723144531 73.92414093017578 C 125.8135757446289 71.95194244384766 124.6315765380859 65.58322143554688 123.4808044433594 60.10869598388672 L 113.0901489257812 43.09566879272461 L 108.2787475585938 37.99607467651367 L 93.38912200927734 22.21463966369629 L 114.8461227416992 25.43207550048828 C 121.9767456054688 26.50126457214355 128.1600646972656 27.3642635345459 133.1279907226562 28.05707550048828 C 143.7955627441406 29.54670143127441 149.5321807861328 30.34745216369629 152.7627410888672 31.36407661437988 C 154.4620513916016 31.89819526672363 157.5451812744141 32.78615570068359 160.7892456054688 33.59706497192383 C 160.8230743408203 30.59078216552734 160.8570404052734 25.60460090637207 160.7539367675781 22.57701301574707 C 160.5614166259766 16.92232131958008 162.551025390625 13.46633052825928 163.6629943847656 11.58133983612061 C 163.7236785888672 10.37457370758057 163.7274932861328 7.627231597900391 163.4360504150391 1.376888871192932 L 163.3870544433594 0.2723889052867889 L 163.0792999267578 -8.196736335754395 L 171.5230560302734 -7.472548484802246 C 174.7850646972656 -7.192798614501953 185.8078002929688 -5.734111309051514 190.6923065185547 1.288576364517212 C 191.9491271972656 3.095701456069946 193.0167999267578 4.301201343536377 193.8754272460938 5.278763771057129 C 195.3614959716797 6.970763683319092 196.8981781005859 8.72032642364502 197.8741149902344 11.40870094299316 C 198.2366180419922 12.40713882446289 199.3396759033203 15.44563865661621 198.2952423095703 27.27445220947266 L 197.26025390625 38.99628448486328 C 199.1601867675781 39.91729354858398 201.0952606201172 40.7875862121582 202.9251861572266 41.53957748413086 C 208.3004913330078 43.74826431274414 210.9115600585938 44.20195007324219 211.7846221923828 44.29445266723633 C 218.2743682861328 44.98051452636719 225.0363006591797 47.09295272827148 225.3209991455078 47.18257522583008 L 228.6980590820312 48.24538803100586 L 230.0238037109375 51.528076171875 C 231.1794891357422 54.38976287841797 234.9845581054688 64.10214233398438 235.4254302978516 68.93238830566406 C 235.6580505371094 71.50376129150391 235.3633117675781 73.73713684082031 235.1265563964844 75.53170013427734 C 235.1124114990234 75.6397705078125 235.0971832275391 75.75601959228516 235.0816192626953 75.87689971923828 C 237.7131042480469 76.65659332275391 241.758056640625 77.51938629150391 244.0168762207031 78.00119781494141 C 245.092529296875 78.23070526123047 246.0508575439453 78.43635559082031 246.910888671875 78.62767791748047 C 246.6696624755859 73.27154541015625 246.1302185058594 65.75242614746094 244.9288024902344 57.79751205444336 L 243.6269378662109 49.17751312255859 L 252.3446807861328 49.17751312255859 L 262.977294921875 49.17751312255859 L 265.3630676269531 49.17751312255859 L 267.310302734375 50.55582809448242 L 275.5344848632812 56.37701416015625 L 278.1463623046875 58.22576522827148 L 278.6191711425781 61.39057540893555 C 279.923828125 70.12393188476562 279.5062561035156 74.80329895019531 278.8028869628906 77.41410064697266 C 279.7156372070312 78.810791015625 280.8982543945312 80.68675231933594 281.4335021972656 83.0828857421875 C 282.1658020019531 86.36061096191406 281.29931640625 88.73524475097656 280.4201965332031 90.16964721679688 C 281.640869140625 90.61766815185547 283.0099182128906 91.16011810302734 284.5440673828125 91.81770324707031 C 288.2552490234375 93.40457916259766 292.0035705566406 95.27320098876953 293.3445434570312 96.09294891357422 C 294.5213012695312 96.81295013427734 296.4864807128906 98.01532745361328 301.0497436523438 107.1121978759766 C 305.4545593261719 115.8963241577148 305.6551818847656 119.1023254394531 305.7211303710938 120.155891418457 C 305.8266296386719 121.8463897705078 305.7271728515625 124.5244522094727 305.5973815917969 127.3593902587891 C 305.466064453125 130.2521362304688 305.2492370605469 135.0058898925781 305.5766906738281 136.5703277587891 C 306.7594909667969 142.2237701416016 303.9117431640625 153.986083984375 303.328857421875 156.2865753173828 L 302.7801208496094 158.452392578125 L 301.3215026855469 159.7938842773438 L 313.5289916992188 164.9740142822266 L 314.6494445800781 165.4505157470703 L 315.5614929199219 166.2570190429688 C 318.8045043945312 169.1243286132812 324.4561767578125 174.6874542236328 325.8714294433594 179.7301940917969 C 329.7095642089844 193.3965759277344 332.9382934570312 204.3355712890625 333.7228698730469 206.3305206298828 C 334.5636901855469 208.4713897705078 335.4524230957031 212.2680816650391 336.3655700683594 217.6181945800781 C 336.9796142578125 221.2111968994141 337.6531677246094 225.91845703125 337.7012939453125 228.3498229980469 C 337.7169189453125 229.1378326416016 337.7643127441406 231.5348205566406 336.1060485839844 238.83251953125 C 335.5216674804688 241.3970184326172 334.4041137695312 245.9739532470703 333.47412109375 247.8661956787109 C 333.0387573242188 248.7534637451172 330.6207580566406 253.5286407470703 328.4628601074219 257.7843627929688 C 330.0858154296875 258.7821960449219 331.5268859863281 260.0943298339844 332.7328186035156 261.694580078125 C 334.5445861816406 264.0994873046875 335.4174499511719 266.3346862792969 335.7542724609375 268.2982482910156 C 346.9715270996094 269.7682189941406 362.1160888671875 272.8690185546875 363.8860473632812 273.234375 L 381.9238586425781 277.8345031738281 L 382.65087890625 278.020263671875 L 383.3266906738281 278.3463134765625 L 398.2369995117188 285.5409545898438 L 399.6608581542969 286.22802734375 L 400.6862487792969 287.431396484375 C 400.9621276855469 287.755126953125 402.4092407226562 289.5011901855469 403.8051147460938 292.0827026367188 C 405.2275695800781 294.7146911621094 406.9361877441406 298.8582153320312 407.0021057128906 303.65869140625 L 407.0174255371094 304.7698974609375 C 407.1175537109375 311.8876953125 407.2340087890625 320.5278930664062 406.9962463378906 326.2191467285156 C 406.7510681152344 332.0899658203125 403.4298706054688 336.9043884277344 401.232177734375 340.0902099609375 C 400.7509460449219 340.7891845703125 400.2880249023438 341.406494140625 399.9741516113281 341.9601440429688 C 399.4204406738281 345.002685546875 397.5214233398438 349.4333801269531 395.9343566894531 352.7860107421875 C 391.666259765625 361.7919616699219 389.5171203613281 363.236083984375 388.3626098632812 364.011962890625 C 388.2261047363281 364.103759765625 373.9068603515625 373.5610656738281 368.8715515136719 374.7298889160156 L 366.4263000488281 375.3556518554688 C 362.5983581542969 376.3638305664062 357.0473022460938 377.8272705078125 352.04150390625 378.4091491699219 C 349.0001831054688 378.7646179199219 341.7014770507812 380.4735412597656 335.743896484375 382.0121459960938 C 334.1219177246094 387.4781494140625 330.5364990234375 392.5108642578125 320.5083618164062 396.601318359375 C 315.4231872558594 398.6751403808594 315.3009338378906 400.2382507324219 314.9743041992188 404.4158935546875 C 314.68798828125 408.0770263671875 314.2088623046875 414.2047119140625 308.0654296875 417.7518920898438 C 305.4225463867188 419.2781982421875 302.6991271972656 429.6450805664062 301.8041076660156 433.0517578125 C 301.2424926757812 435.1895141601562 300.7438049316406 437.0444030761719 300.2823181152344 438.3730773925781 C 298.7635498046875 442.7477722167969 298.3768005371094 447.5546875 298.373046875 447.6027526855469 L 297.8538208007812 454.2924499511719 L 291.1476135253906 454.532958984375 C 291.1476135253906 454.532958984375 287.763427734375 454.6468200683594 285.0145568847656 454.6468200683594 C 283.1946716308594 454.6468200683594 281.5876159667969 454.5626525878906 280.8534851074219 454.4490661621094 C 279.9445495605469 454.5026245117188 277.9716186523438 454.5701904296875 275.6357421875 454.6473999023438 L 273.927490234375 454.7034606933594 C 270.6755065917969 454.8087158203125 267.0144958496094 454.9126281738281 263.914306640625 454.9126281738281 C 258.700439453125 454.9126281738281 256.8472595214844 454.6116943359375 255.6211853027344 454.2864990234375 C 253.9475555419922 454.3809509277344 251.4366149902344 454.5861511230469 248.4451141357422 454.8164367675781 L 246.0774383544922 454.9969482421875 C 241.6427459716797 455.3278198242188 236.5292510986328 455.6540832519531 231.48486328125 455.6540832519531 C 225.7057495117188 455.6540832519531 220.9508056640625 455.2333374023438 216.9481811523438 454.3677673339844 C 214.4441223144531 453.8257141113281 212.3781890869141 453.5510864257812 210.8064270019531 453.5510864257812 C 210.35205078125 453.5510864257812 209.5218658447266 453.5772705078125 209.0671234130859 453.7527770996094 C 207.89892578125 454.2854614257812 206.4386138916016 454.9605102539062 204.4691162109375 454.9605712890625 C 203.2884979248047 454.9606628417969 202.1546936035156 454.7267456054688 201.0779724121094 454.2628173828125 C 197.4809875488281 454.4897766113281 189.5480651855469 456.013671875 183.6318054199219 457.1500854492188 C 175.5683746337891 458.6989440917969 170.8738098144531 459.5768737792969 168.1533050537109 459.6109008789062 L 163.4626770019531 459.697021484375 C 157.3959350585938 459.8170166015625 147.5593109130859 460.0110778808594 139.7624969482422 460.0110778808594 C 130.0826873779297 460.0110778808594 127.9950561523438 459.7228393554688 126.6864318847656 459.4275207519531 C 126.4934310913086 459.4274597167969 125.6138687133789 459.4226379394531 124.4799346923828 459.4226379394531 C 121.2459945678711 459.4226379394531 116.4407424926758 459.5835876464844 111.28662109375 459.7539367675781 L 110.0838088989258 459.7936401367188 C 104.2964935302734 459.9838256835938 98.20442962646484 460.1723327636719 93.38062286376953 460.1723327636719 Z M 152.5271759033203 366.4862060546875 L 152.5272521972656 366.4862060546875 C 157.6383972167969 366.4862670898438 161.1191711425781 368.6022338867188 162.9025573730469 372.7838134765625 C 162.4998474121094 368.6475524902344 161.9716033935547 364.9409790039062 161.580810546875 363.5511169433594 C 159.4801788330078 359.7136535644531 160.5062255859375 355.1764831542969 161.7853698730469 349.5191345214844 C 162.5313720703125 346.2196350097656 163.3768768310547 342.4799499511719 163.3821258544922 339.6766357421875 C 163.3840026855469 338.7238159179688 163.3776702880859 337.9317932128906 163.3621826171875 337.2652282714844 C 160.9691009521484 337.2597351074219 159.2238464355469 337.1029052734375 157.82861328125 336.9475708007812 C 156.4987487792969 336.7921447753906 156.0894317626953 336.7226867675781 155.6819915771484 336.7226867675781 C 155.1138000488281 336.9198303222656 154.3762512207031 337.2189025878906 153.5199279785156 337.5571899414062 C 149.8281860351562 339.0157775878906 144.3117523193359 341.1965637207031 137.7576141357422 341.1965637207031 C 137.7456207275391 341.196533203125 137.7333374023438 341.1965026855469 137.7208709716797 341.1965026855469 C 136.7127380371094 341.1965026855469 134.1683044433594 341.3520812988281 128.6553039550781 343.8518371582031 C 126.2206192016602 344.9556274414062 124.1587677001953 346.0889892578125 123.3075637817383 346.5709533691406 L 118.0632247924805 350.7291564941406 C 119.3720016479492 350.6299743652344 120.305793762207 350.4666748046875 120.45068359375 350.4398193359375 L 128.9417419433594 348.8665161132812 L 129.3361206054688 357.4893798828125 C 129.3610076904297 358.0720520019531 129.5127410888672 361.7951354980469 129.4888763427734 365.3609924316406 C 129.9388580322266 365.4470520019531 130.3666534423828 365.5241394042969 130.7063140869141 365.5853271484375 C 132.8422698974609 365.9700622558594 134.74267578125 366.3124694824219 136.4312896728516 367.1290588378906 C 137.0088500976562 367.1934204101562 137.7420959472656 367.1947631835938 138.5661163330078 367.1947631835938 C 141.4288635253906 367.1947631835938 145.0354919433594 366.94189453125 148.2361755371094 366.7238159179688 L 151.1466217041016 366.5310668945312 L 151.3787384033203 366.5166320800781 L 152.5271759033203 366.4862060546875 Z M 194.6941833496094 345.4802551269531 C 195.1449432373047 348.4750671386719 194.8773956298828 352.4185180664062 194.4384307861328 357.7867126464844 C 194.2129364013672 360.5452575683594 193.8353729248047 365.1623229980469 194.0885620117188 366.4888305664062 C 194.2529602050781 367.3423461914062 194.3822784423828 368.3340759277344 194.4768829345703 369.4722290039062 C 196.5029144287109 368.8067932128906 199.4721527099609 368.5292053222656 204.5903015136719 368.5292053222656 C 208.5868072509766 368.5292053222656 213.4483642578125 368.7132568359375 218.1446838378906 368.8993835449219 C 223.0720520019531 369.0948791503906 227.1204376220703 369.2582702636719 230.1366271972656 369.2582702636719 C 238.81640625 369.1715698242188 241.8929138183594 368.5889892578125 248.8873901367188 367.06298828125 C 248.0955352783203 359.4264526367188 247.1417388916016 351.0349426269531 247.1417388916016 351.0349426269531 L 247.1150665283203 341.6856384277344 C 245.5455474853516 341.5421142578125 244.0818328857422 341.310302734375 242.7376251220703 340.9915771484375 C 241.9320526123047 340.8003845214844 241.1604919433594 340.7115173339844 240.3081207275391 340.7115173339844 C 239.0424346923828 340.7115173339844 237.8723754882812 340.8858337402344 236.7393035888672 341.035888671875 C 234.8991851806641 341.2796325683594 233.0928039550781 341.4990234375 231.1893005371094 341.4990234375 C 229.5636138916016 341.4990234375 228.0358123779297 341.3512573242188 226.5180511474609 341.0546264648438 C 222.8906860351562 340.3511352539062 218.8045501708984 339.9465026855469 215.3178100585938 339.9465026855469 C 211.4974975585938 339.9465026855469 209.3163757324219 340.4112548828125 208.1593627929688 340.8012084960938 C 205.3920593261719 341.7355651855469 202.59375 342.4239501953125 200.1191253662109 343.0248413085938 C 198.7823791503906 343.3482666015625 197.1746978759766 343.7380065917969 196.0728302001953 344.0731506347656 C 195.6649627685547 344.6422424316406 195.2052917480469 345.1015930175781 194.6941833496094 345.4802551269531 Z M 284.2811889648438 360.6066284179688 C 290.002685546875 360.6066284179688 295.8370666503906 361.2512512207031 298.9714965820312 361.5975036621094 L 299.2611694335938 361.6286926269531 C 300.2569580078125 361.0130004882812 301.9600524902344 359.6720886230469 303.2632446289062 358.6460876464844 C 306.1943664550781 356.3382568359375 309.8423156738281 353.4661254882812 314.171630859375 351.1783752441406 L 314.8539428710938 350.8134460449219 L 314.8539428710938 349.0869445800781 L 316.0946350097656 347.4281616210938 C 314.447021484375 347.2011108398438 312.77392578125 346.9388122558594 311.1220703125 346.6798400878906 C 308.4892578125 346.2661437988281 306.0465087890625 345.8731384277344 304.0311889648438 345.7060852050781 C 301.2104797363281 345.4729614257812 297.8256225585938 344.9766540527344 294.552490234375 344.4900207519531 C 290.640380859375 343.9085083007812 286.3788146972656 343.2746887207031 283.9806213378906 343.2746887207031 C 282.4246215820312 343.2746887207031 280.5656127929688 343.3959655761719 278.5954895019531 343.5179443359375 C 277.253173828125 343.6003723144531 275.9356384277344 343.6796875 274.6910095214844 343.7358093261719 C 275.6839599609375 348.52099609375 277.1143493652344 354.3707580566406 278.3320007324219 358.1051940917969 C 278.6327514648438 359.0274658203125 278.907958984375 359.9349670410156 279.1592102050781 360.8171997070312 C 280.7618408203125 360.6715393066406 282.4497985839844 360.6066284179688 284.2811889648438 360.6066284179688 Z M 344.8171081542969 360.1615905761719 L 345.8644409179688 360.49658203125 C 345.4859008789062 360.3426208496094 345.1348266601562 360.2353820800781 344.8171081542969 360.1615905761719 Z M 337.4660339355469 357.260498046875 C 337.7900390625 358.2386779785156 338.1068115234375 359.24658203125 338.4034729003906 360.2636108398438 C 340.3844909667969 359.9048767089844 341.5070495605469 359.8341369628906 342.3006286621094 359.8341369628906 L 343.7933654785156 359.8341369628906 L 343.8545227050781 359.8536987304688 C 344.3746032714844 359.6351318359375 345.5032348632812 359.1860656738281 346.8494873046875 358.4755249023438 C 347.0720520019531 358.3579406738281 347.2813720703125 358.2431640625 347.4774475097656 358.1319580078125 C 346.4063110351562 357.6054382324219 345.1768798828125 356.8788146972656 343.9019470214844 356.09521484375 C 343.0557861328125 355.5743713378906 341.7142333984375 354.7486572265625 340.7253112792969 354.2548217773438 C 339.6426391601562 355.0534057617188 338.4955444335938 356.1764526367188 337.4660339355469 357.260498046875 Z M 104.5525512695312 270.4027404785156 C 104.3589859008789 276.4248046875 104.0795593261719 281.3844299316406 103.9365539550781 282.9552001953125 C 103.8119964599609 284.3192138671875 103.9601821899414 286.1611328125 104.0749359130859 288.1099548339844 C 104.291748046875 291.7910766601562 104.5374298095703 295.9633178710938 103.8160552978516 299.4991455078125 C 103.3294296264648 301.9439392089844 103.6977462768555 313.0778198242188 103.8364334106445 317.2692565917969 C 103.9158706665039 319.6708984375 103.9747467041016 321.5776977539062 103.9671859741211 322.4865112304688 C 103.9524765014648 324.2127075195312 103.9295425415039 326.7666625976562 103.9138565063477 329.4092712402344 C 104.6635208129883 328.9197387695312 105.2970428466797 328.5712890625 105.8153686523438 328.2911376953125 C 105.810905456543 328.3072814941406 105.8114700317383 328.3158264160156 105.8172225952148 328.3158264160156 C 105.8631591796875 328.3158264160156 106.2402191162109 327.7704467773438 107.0322418212891 326.1940002441406 C 108.7321853637695 322.8083190917969 110.0368041992188 317.984130859375 110.989372253418 314.4617004394531 L 111.9034957885742 311.1818237304688 C 112.3454971313477 309.7182006835938 112.5500564575195 308.1351318359375 112.8215560913086 306.3091430664062 C 113.1864929199219 303.8598937988281 113.598747253418 301.1360168457031 114.3733673095703 297.9136352539062 C 114.9821853637695 295.3811340332031 114.8274307250977 293.9330749511719 114.5464935302734 291.304443359375 C 114.3444976806641 289.4178161621094 114.1481170654297 287.4771423339844 114.1658096313477 285.04638671875 C 114.1829986572266 282.7565612792969 111.8441162109375 277.6647033691406 110.7201232910156 275.2176513671875 C 109.7962875366211 273.2030334472656 109.1478576660156 271.7882995605469 108.7989501953125 270.4365234375 C 108.5231094360352 269.9333801269531 107.9421691894531 269.0926208496094 107.1960525512695 268.210205078125 C 106.2513809204102 268.9881286621094 105.3610992431641 269.7274780273438 104.5525512695312 270.4027404785156 Z M 273.6192626953125 251.71533203125 C 276.358642578125 252.2699432373047 278.6202392578125 253.1442260742188 280.3800659179688 254.33251953125 C 280.4645080566406 254.3895111083984 282.5732421875 255.7683258056641 290.6806945800781 257.3786926269531 C 292.2422485351562 257.6894836425781 293.7321166992188 257.9504699707031 295.0197143554688 258.1597290039062 L 298.542724609375 253.6932678222656 C 294.016845703125 250.4303894042969 288.75830078125 247.2177429199219 287.2391967773438 246.6721343994141 C 285.0482788085938 246.0361633300781 278.8594360351562 243.3503723144531 273.4117126464844 240.9127807617188 C 273.4461364746094 242.7313079833984 273.4903869628906 244.5833282470703 273.5298156738281 246.2925109863281 C 273.5773620605469 248.3528594970703 273.6091613769531 250.2356872558594 273.6192626953125 251.71533203125 Z M 205.2684326171875 250.4453887939453 C 210.9976196289062 250.4453887939453 217.3469390869141 250.5396423339844 218.6131134033203 250.5584564208984 L 220.3736877441406 250.5846405029297 L 222.0019989013672 251.3935699462891 L 222.0902557373047 251.4390869140625 C 222.7062072753906 249.8171234130859 222.8524780273438 249.2726593017578 222.8760528564453 249.1777648925781 C 222.9737243652344 248.4584808349609 222.8465118408203 246.3797760009766 222.5753173828125 245.072265625 C 222.0075378417969 244.8783721923828 221.3501739501953 244.6511535644531 220.5905609130859 244.3851318359375 C 216.0788116455078 242.8014526367188 213.8851776123047 241.1518249511719 212.0246124267578 239.5978240966797 C 211.8084259033203 239.3227081298828 211.2419891357422 239.1645202636719 209.4129333496094 239.1645202636719 L 208.2161865234375 239.1831970214844 C 204.8614959716797 239.283447265625 202.5596160888672 239.4664459228516 200.7091827392578 239.6127624511719 C 198.8391265869141 239.76220703125 197.4254913330078 239.8655700683594 196.0379943847656 239.8655700683594 C 194.6135864257812 239.8655700683594 193.2701110839844 239.7628936767578 191.8351593017578 239.5355682373047 C 191.8292083740234 245.5161895751953 191.8597717285156 248.9095001220703 191.8955230712891 250.8315124511719 C 192.8300018310547 250.8176727294922 193.9344482421875 250.7522735595703 195.1906890869141 250.6825103759766 L 197.2976837158203 250.5692596435547 C 198.7927398681641 250.4905090332031 201.4795532226562 250.4453887939453 205.2684326171875 250.4453887939453 Z M 246.3985137939453 250.3943786621094 L 246.9965972900391 250.776123046875 C 247.0159912109375 250.1247253417969 247.0344390869141 249.5485229492188 247.0502014160156 249.0748443603516 C 246.8491516113281 249.5234222412109 246.6307678222656 249.9636840820312 246.3985137939453 250.3943786621094 Z M 135.5319366455078 250.2240142822266 C 138.3503112792969 250.2240142822266 141.9500579833984 250.3285064697266 145.7008666992188 250.4463958740234 C 149.4226226806641 250.564208984375 152.4088134765625 250.6605072021484 154.4346160888672 250.6605072021484 C 155.0384979248047 250.6605072021484 155.4811248779297 250.6580200195312 155.7741241455078 250.6331939697266 C 156.1941833496094 250.5403900146484 157.3531188964844 250.4255828857422 158.9544372558594 250.4255828857422 C 160.2667694091797 250.4255828857422 161.8242950439453 250.4944610595703 163.3446655273438 250.5658111572266 C 163.3249664306641 245.5359191894531 163.3141632080078 239.8940124511719 163.3446044921875 236.6685485839844 C 159.8544769287109 236.7593078613281 155.9983215332031 237.0156555175781 154.7596130371094 237.8670196533203 C 151.1851806640625 240.3270111083984 147.4753112792969 241.4128265380859 144.4943695068359 242.2853240966797 C 141.5381164550781 243.15283203125 139.8143768310547 243.6967010498047 138.7104339599609 244.8022003173828 L 137.4383697509766 246.0873260498047 C 135.7190093994141 247.8339538574219 134.4262084960938 249.1141510009766 132.9887237548828 250.2600555419922 C 133.7341613769531 250.235107421875 134.5742797851562 250.2240142822266 135.5319366455078 250.2240142822266 Z M 103.3971176147461 237.2092132568359 C 103.4496536254883 239.0557861328125 103.5978851318359 240.6279602050781 103.8427429199219 241.9539489746094 C 103.904052734375 242.2861175537109 103.9622650146484 242.6379547119141 104.017333984375 243.0092620849609 L 114.631233215332 235.3331909179688 C 114.1863174438477 235.3072052001953 113.7531204223633 235.2918243408203 113.3171844482422 235.2918243408203 C 112.1182479858398 235.2918243408203 111.0459976196289 235.434326171875 109.7317428588867 235.7682037353516 C 107.8576049804688 236.2435302734375 105.6072158813477 236.7447509765625 103.3971176147461 237.2092132568359 Z M 191.7866821289062 125.052978515625 L 192.2291717529297 126.3560333251953 L 193.4274597167969 124.73779296875 L 192.7620391845703 122.2590103149414 L 191.7866821289062 122.2590103149414 L 191.7866821289062 125.052978515625 Z M 186.8257751464844 34.31998825073242 C 188.1517181396484 34.61653900146484 189.4330139160156 35.04274368286133 190.6644592285156 35.5972900390625 L 186.5847473144531 32.80163955688477 L 186.3567199707031 32.6453857421875 C 186.3731079101562 32.97702026367188 186.3952026367188 33.2647819519043 186.4231719970703 33.50188446044922 C 186.5613555908203 33.76852798461914 186.6956634521484 34.04149627685547 186.8257751464844 34.31998825073242 Z" stroke="none"/>
      <path d="M 93.37823486328125 452.6723327636719 C 98.13137817382812 452.6723327636719 104.134521484375 452.4850463867188 109.8368759155273 452.2976989746094 C 118.5813217163086 452.0096740722656 126.6156005859375 451.7226257324219 128.3373107910156 452.1114196777344 C 132.1658935546875 452.9754333496094 162.5787200927734 452.1798400878906 168.0597381591797 452.1114196777344 C 173.5407257080078 452.0429992675781 201.2947235107422 445.2280883789062 203.5170288085938 447.0372009277344 C 204.5393218994141 447.8687744140625 204.9255065917969 447.3126220703125 206.3673095703125 446.7555541992188 C 208.0583801269531 446.1029663085938 211.2029724121094 445.4505004882812 218.5335235595703 447.0372009277344 C 226.4742126464844 448.75439453125 237.2309875488281 448.1361083984375 245.5182342529297 447.5178527832031 C 251.4042358398438 447.0777282714844 256.0445556640625 446.6384582519531 257.5440368652344 447.0372009277344 C 259.7022094726562 447.6096496582031 267.4592895507812 447.4089050292969 273.6855163574219 447.2073364257812 C 277.8669738769531 447.0722961425781 281.3590393066406 446.9374694824219 281.9996643066406 447.0372009277344 C 283.594482421875 447.2837829589844 290.8943786621094 447.0372314453125 290.8943786621094 447.0372009277344 C 290.8943786621094 447.0372009277344 291.3147277832031 441.335693359375 293.197509765625 435.912353515625 C 295.0812377929688 430.4889221191406 297.4598693847656 415.2159118652344 304.3152465820312 411.2568359375 C 311.1705322265625 407.2986450195312 302.1282348632812 395.9973449707031 317.6757507324219 389.6567687988281 C 329.9325256347656 384.6573486328125 328.3854370117188 379.0229797363281 329.4998779296875 375.9135437011719 C 334.8948669433594 374.4256896972656 346.4124450683594 371.5159912109375 351.1755065917969 370.9593505859375 C 355.6502990722656 370.4391174316406 360.8910217285156 369.0576171875 364.3595886230469 368.1431884765625 L 364.5135192871094 368.1036376953125 C 365.5782470703125 367.8228454589844 366.4971008300781 367.5806884765625 367.1757507324219 367.4241333007812 C 370.1421508789062 366.7356262207031 382.2642211914062 359.0757141113281 384.179443359375 357.7869262695312 C 385.3539428710938 356.9976196289062 387.5202331542969 353.0277099609375 389.155517578125 349.5771179199219 C 391.0995178222656 345.4704284667969 392.530517578125 341.6759948730469 392.6349487304688 340.3494262695312 C 392.7240295410156 339.2199096679688 393.7995300292969 337.6592712402344 395.0442504882812 335.8529968261719 L 395.0586547851562 335.8314208984375 C 396.9702453613281 333.0602722167969 399.3480224609375 329.6114807128906 399.5028076171875 325.9061889648438 C 399.7358703613281 320.3244018554688 399.6162414550781 311.8473510742188 399.5288696289062 305.6580505371094 L 399.5028076171875 303.7616882324219 C 399.4577941894531 300.4847717285156 398.230224609375 297.5418395996094 397.2077941894531 295.6499938964844 C 396.1260070800781 293.6492614746094 395.0244445800781 292.3506164550781 394.9776000976562 292.2957153320312 L 380.0673217773438 285.1011352539062 L 362.3697509765625 280.5794982910156 C 361.6416015625 280.42919921875 344.4120178222656 276.879638671875 333.1620178222656 275.5314025878906 C 329.3918762207031 275.0796203613281 327.9312438964844 274.7034301757812 327.58203125 274.0923461914062 C 327.3732299804688 273.7269287109375 327.5703125 273.2804870605469 327.819580078125 272.7144165039062 C 328.3793640136719 271.4354858398438 329.2253723144531 269.5032043457031 326.7431640625 266.2083435058594 C 324.0691833496094 262.6598205566406 319.5386047363281 262.0688171386719 313.9803161621094 264.4326171875 C 312.4088745117188 265.1022033691406 311.2110290527344 265.8123474121094 310.6376647949219 266.1777038574219 L 318.6504516601562 260.5481872558594 L 318.7035217285156 260.44384765625 C 320.4153137207031 257.0714721679688 326.0547485351562 245.9609832763672 326.7431640625 244.5579223632812 C 327.1320190429688 243.7667694091797 328.0130920410156 240.5906982421875 328.7925109863281 237.1707000732422 C 329.2299499511719 235.2456359863281 330.2433166503906 230.5476226806641 330.2028198242188 228.4982757568359 C 330.1704406738281 226.8639221191406 329.6763000488281 222.9984130859375 328.9725341796875 218.8799896240234 C 328.1805114746094 214.2396240234375 327.3677978515625 210.6656951904297 326.7431640625 209.0754089355469 C 325.3455200195312 205.5212707519531 319.7565307617188 185.6952056884766 318.6504516601562 181.7567749023438 C 317.6325073242188 178.1298370361328 310.8807373046875 172.1294860839844 310.5935974121094 171.8757019042969 L 298.2357482910156 166.6197052001953 L 287.1702270507812 162.6192016601562 L 296.05859375 154.4444885253906 C 296.0892333984375 154.3239135742188 299.0762939453125 142.1244201660156 298.2357482910156 138.1067657470703 C 297.7137451171875 135.6129150390625 297.9207458496094 131.0742034912109 298.1033935546875 127.0701293945312 L 298.1051635742188 127.0169906616211 C 298.2203674316406 124.5006332397461 298.3293151855469 122.1237030029297 298.2357482910156 120.6243438720703 C 298.1286010742188 118.9124908447266 296.6741638183594 115.1181335449219 294.345947265625 110.4749908447266 C 292.2588195800781 106.3142700195312 290.1932983398438 102.9573440551758 289.4328002929688 102.4919891357422 C 288.6039428710938 101.9853439331055 285.2748107910156 100.2869873046875 281.5892944335938 98.71112823486328 C 278.3240966796875 97.31163024902344 273.8727416992188 95.6204833984375 271.2077941894531 95.50713348388672 C 269.3912353515625 95.43034362792969 266.4723815917969 94.48434448242188 263.3259582519531 93.24120330810547 C 263.8545837402344 91.61070251464844 264.631103515625 89.96970367431641 262.977294921875 87.10384368896484 C 260.7534484863281 83.24998474121094 261.1080322265625 82.50391387939453 262.977294921875 80.11798858642578 C 264.8466186523438 77.73293304443359 266.5080261230469 82.64613342285156 269.1315307617188 84.71791839599609 C 271.7550659179688 86.7906494140625 274.7979125976562 87.7796630859375 274.1138916015625 84.71791839599609 C 273.4298706054688 81.6561279296875 269.5365295410156 78.94891357421875 271.2015075683594 76.296630859375 C 272.8665161132812 73.64434051513672 271.2015075683594 62.49870300292969 271.2015075683594 62.49870300292969 L 262.977294921875 56.67748641967773 L 252.3447418212891 56.67748641967773 C 254.322021484375 69.76984405517578 254.5542297363281 81.51841735839844 254.5938110351562 84.71791839599609 C 254.6148071289062 86.41712951660156 254.60009765625 87.77220153808594 254.5887298583984 89.42919921875 C 253.9761657714844 89.14584350585938 253.3921661376953 88.87406158447266 252.8450927734375 88.61941528320312 L 252.7550964355469 88.57798767089844 C 251.429443359375 87.96148681640625 250.1783752441406 87.37827301025391 249.4350280761719 87.06598663330078 C 248.2677307128906 86.5772705078125 245.60009765625 86.00762939453125 242.5113067626953 85.34791564941406 L 242.4608764648438 85.33798980712891 C 236.4102325439453 84.04741668701172 228.8790283203125 82.4417724609375 227.9565277099609 80.47620391845703 C 227.1428833007812 78.73920440673828 227.4083862304688 76.70791625976562 227.6900939941406 74.55691528320312 L 227.6910247802734 74.55062866210938 C 227.8988800048828 72.97470092773438 228.1130981445312 71.345703125 227.9565277099609 69.61412811279297 C 227.5920257568359 65.62084197998047 223.2566680908203 54.80012893676758 223.0722351074219 54.34198760986328 L 223.0695190429688 54.33663177490234 C 222.8120880126953 54.25563049316406 216.6903076171875 52.35477447509766 210.9942321777344 51.75270080566406 C 208.3958740234375 51.47727203369141 204.6195220947266 50.34420013427734 200.0745239257812 48.47669982910156 C 196.2900238037109 46.92148590087891 192.0878753662109 44.8956298828125 188.5455169677734 42.9192008972168 C 186.6078033447266 41.83834457397461 184.5135192871094 41.31362915039062 182.1428833007812 41.31362915039062 C 181.8661651611328 41.31362915039062 181.5902404785156 41.32070159912109 181.3147430419922 41.33384323120117 C 180.9489440917969 39.63970184326172 180.2929534912109 37.83784484863281 179.4806671142578 36.43470001220703 C 178.0010986328125 33.87784576416016 179.4806671142578 18.84148788452148 179.4806671142578 18.84148788452148 L 190.8243103027344 26.61484336853027 C 190.8243103027344 26.61484336853027 191.7225189208984 16.44212913513184 190.8243103027344 13.96798706054688 C 189.9260864257812 11.49391555786133 187.7895202636719 10.25012969970703 184.5350952148438 5.570987224578857 C 181.2807312011719 0.8919156789779663 170.8820953369141 -1.286969836655771e-05 170.8820953369141 -1.286969836655771e-05 C 170.9396667480469 1.58398711681366 171.5490264892578 12.28770160675049 170.8820953369141 13.96798706054688 C 170.2160949707031 15.64834403991699 168.0885162353516 17.59048652648926 168.2495880126953 22.32184410095215 C 168.4107360839844 27.05220222473145 168.2495880126953 36.43470001220703 168.2495880126953 36.43470001220703 C 168.2495880126953 36.43470001220703 168.1005249023438 40.07498550415039 168.1303100585938 42.72884368896484 C 162.4548797607422 42.01220321655273 153.583740234375 39.48391723632812 150.5115203857422 38.5181999206543 C 147.8745269775391 37.68841552734375 141.6888122558594 36.82534408569336 132.3260955810547 35.51848602294922 L 132.0920867919922 35.48520278930664 C 127.1033782958984 34.78948593139648 120.8943099975586 33.92284393310547 113.7338790893555 32.84912872314453 L 119.0825958251953 38.5181999206543 L 130.5503845214844 57.29491424560547 C 130.5765228271484 57.41641616821289 133.2072296142578 69.65013122558594 133.4033813476562 73.54620361328125 C 133.4285888671875 74.046630859375 133.4637298583984 74.64870452880859 133.5005950927734 75.271484375 L 133.5177307128906 75.57391357421875 C 133.7993774414062 80.36370086669922 134.3240966796875 89.27912902832031 133.4033813476562 91.61013031005859 C 133.2207336425781 92.07363128662109 132.9380950927734 92.81520080566406 132.6600189208984 93.54598999023438 L 132.5412292480469 93.85834503173828 C 130.738525390625 98.58963012695312 127.3833084106445 107.3979187011719 126.1917343139648 108.6696319580078 C 124.7930908203125 110.1618423461914 121.7933807373047 124.905632019043 121.6665191650391 125.5319900512695 L 121.6655960083008 125.5382690429688 L 116.0100250244141 129.1392059326172 C 115.6113052368164 129.1752014160156 113.5080184936523 129.3534088134766 111.2760238647461 129.3534088134766 C 109.8675231933594 129.3534088134766 108.7272338867188 129.2814178466797 107.8848037719727 129.1383514404297 C 103.2588043212891 128.3634185791016 99.92609405517578 127.1529159545898 97.98030853271484 125.5382690429688 C 97.51423645019531 125.1515579223633 96.78266143798828 124.7402725219727 95.89916229248047 124.326416015625 C 95.31459045410156 120.8515548706055 94.45294952392578 115.7874145507812 94.18588256835938 114.5232009887695 C 93.76923370361328 112.5504150390625 91.827880859375 105.0587692260742 94.18588256835938 102.1239166259766 C 96.54387664794922 99.18898773193359 96.46737670898438 95.3109130859375 96.46737670898438 95.3109130859375 L 102.3993072509766 102.1239166259766 C 102.399299621582 102.1239166259766 106.2612152099609 103.9283981323242 106.828239440918 102.1239166259766 C 107.3943099975586 100.318489074707 106.828239440918 91.73612976074219 106.828239440918 91.73612976074219 L 99.61923217773438 81.85141754150391 L 102.3993072509766 77.46662902832031 C 102.3993072509766 77.46662902832031 106.9253768920898 72.66062927246094 102.3993072509766 69.96241760253906 C 97.87323760986328 67.26512908935547 86.38109588623047 63.18270111083984 86.38109588623047 63.18270111083984 C 86.11559295654297 67.41362762451172 87.45388031005859 77.09941864013672 86.38109588623047 81.85141754150391 C 85.30738067626953 86.60248565673828 87.36573791503906 89.81191253662109 86.38109588623047 91.73612976074219 C 85.39652252197266 93.66120147705078 86.38109588623047 95.3109130859375 86.38109588623047 95.3109130859375 C 86.38109588623047 95.3109130859375 82.26002502441406 98.04512786865234 83.94123840332031 102.1239166259766 C 85.62330627441406 106.2018432617188 86.54402160644531 105.942626953125 86.38109588623047 108.1557006835938 C 86.21730804443359 110.3679122924805 86.49273681640625 117.0557708740234 86.38109588623047 120.3974838256836 C 86.37459564208984 120.5919189453125 86.36894989013672 120.7837753295898 86.36395263671875 120.9738464355469 C 85.6202392578125 120.7574157714844 85.15623474121094 120.6303405761719 85.13459014892578 120.6243438720703 L 75.06630706787109 120.6243438720703 L 62.28359222412109 114.8309860229492 L 44.34123611450195 108.6696319580078 C 44.34387969970703 108.6786270141602 44.66794967651367 109.6479187011719 45.51302337646484 110.8664855957031 C 46.3013801574707 112.0041275024414 47.72523498535156 113.6142044067383 50.02737808227539 114.8309860229492 C 52.32687759399414 116.0459899902344 54.29701995849609 118.8936309814453 55.54438018798828 121.067985534668 C 56.8215217590332 123.2927703857422 57.63152313232422 125.3151321411133 57.71973419189453 125.5391998291016 L 65.43994903564453 138.1076965332031 C 66.16802215576172 139.772705078125 72.62102508544922 154.4643402099609 75.06630706787109 157.3092041015625 C 77.19302368164062 159.7824096679688 76.07252502441406 164.8592681884766 75.40287780761719 167.8922729492188 L 75.39208984375 167.9427032470703 C 75.27237701416016 168.4809112548828 75.1383056640625 169.0911254882812 75.06630706787109 169.5374908447266 C 74.90073394775391 170.5788421630859 75.01230621337891 173.3211364746094 75.14187622070312 176.496337890625 L 75.14280700683594 176.5242004394531 C 75.32187652587891 180.8954925537109 75.52530670166016 185.8499908447266 75.06630706787109 187.8777008056641 C 74.35887908935547 190.9979858398438 71.67237854003906 201.1724853515625 71.14051818847656 203.180419921875 L 71.13330841064453 203.2074127197266 L 68.18759155273438 215.4114227294922 C 67.86723327636719 215.9424133300781 66.16887664794922 218.7314910888672 64.18801879882812 221.5476226806641 C 60.53487777709961 226.7432708740234 58.65387725830078 228.1959228515625 57.71973419189453 228.4992065429688 C 56.78459167480469 228.8016357421875 55.33473587036133 229.8816375732422 53.73630905151367 233.3007049560547 C 52.89752197265625 235.0952758789062 52.36202239990234 236.8034820556641 52.21709442138672 237.2841339111328 L 52.21352005004883 237.2967071533203 C 52.21259307861328 237.2984924316406 52.21173477172852 237.3003387451172 52.21173477172852 237.3066253662109 C 52.28102111816406 237.3029937744141 59.21187973022461 237.0078430175781 62.28359222412109 235.2447052001953 C 65.40030670166016 233.4546356201172 74.97087860107422 231.7041320800781 75.06630706787109 231.6861267089844 L 84.07344818115234 231.6861267089844 C 84.01187896728516 236.8804168701172 83.94123840332031 240.9156341552734 83.94123840332031 240.9156341552734 C 83.94123840332031 240.9156341552734 81.393310546875 246.6081237792969 83.94123840332031 252.6948394775391 C 86.49002075195312 258.781494140625 83.87281036376953 276.7914123535156 83.94123840332031 285.8399963378906 C 84.01052093505859 294.8876953125 83.79273223876953 306.359130859375 83.94123840332031 314.0757141113281 C 84.09059143066406 321.7914123535156 83.77738189697266 326.9601440429688 83.94123840332031 329.5359191894531 C 84.10588073730469 332.11083984375 83.94123840332031 345.5999755859375 83.94123840332031 345.5999755859375 C 83.94123840332031 345.5999755859375 84.07009124755859 349.2769165039062 84.05844879150391 352.0238342285156 C 80.55516815185547 351.3895568847656 76.21881103515625 350.2261962890625 72.21873474121094 349.3476257324219 C 65.49573516845703 347.8698425292969 47.03852081298828 348.0147094726562 43.69502258300781 345.0401916503906 C 40.35152053833008 342.0657043457031 23.6295223236084 339.2361450195312 23.6295223236084 339.2361450195312 L 16.93530654907227 333.9441223144531 C 16.93530654907227 333.9441223144531 14.97509288787842 327.579345703125 16.93530654907227 324.1529846191406 C 18.8963794708252 320.7276306152344 21.65130805969238 316.6407165527344 20.92502212524414 312.2568359375 C 20.1987361907959 307.8729248046875 20.54252243041992 307.6605529785156 20.92502212524414 304.2044982910156 C 21.30752182006836 300.7494201660156 16.93530654907227 295.6391906738281 16.93530654907227 295.6391906738281 C 16.93530654907227 295.6391906738281 11.23830699920654 298.33740234375 7.03352165222168 298.6514892578125 C 2.829593181610107 298.966552734375 -0.1116212010383606 302.2811889648438 0.003593087429180741 304.2044982910156 C 0.1178788021206856 306.1286926269531 -0.6182640790939331 311.0292053222656 3.060878753662109 315.7469787597656 C 6.740093231201172 320.4639282226562 7.091093063354492 323.3079223632812 7.03352165222168 324.1529846191406 C 6.976807594299316 324.9989929199219 9.786593437194824 333.9441223144531 9.786593437194824 333.9441223144531 C 9.287093162536621 336.3434753417969 11.67209339141846 354.6954040527344 9.786593437194824 357.8094177246094 C 7.901093006134033 360.9224853515625 11.82959270477295 364.5252075195312 9.786593437194824 369.2133483886719 C 7.743593215942383 373.9004821777344 15.98402118682861 380.8404235839844 16.93530654907227 384.3891296386719 C 17.88659286499023 387.9386901855469 15.62309265136719 390.883544921875 16.93530654907227 395.3025512695312 C 18.24837875366211 399.7206420898438 16.12080764770508 401.7689819335938 16.93530654907227 404.543701171875 C 17.74980735778809 407.3184204101562 20.85480690002441 409.6728515625 20.92502212524414 414.9081420898438 C 20.99609375 420.1425476074219 20.55059242248535 420.7796936035156 20.92502212524414 424.7892150878906 C 21.30030822753906 428.7996215820312 23.6295223236084 447.0372009277344 23.6295223236084 447.0372009277344 L 57.13737869262695 452.1114196777344 C 57.13737869262695 452.1114196777344 80.17559051513672 450.4922790527344 84.80073547363281 452.1114196777344 C 85.99137878417969 452.5277099609375 89.20266723632812 452.6723327636719 93.37823486328125 452.6723327636719 M 152.5271606445312 373.9862060546875 C 152.2455902099609 373.9862060546875 151.9410858154297 373.9961242675781 151.6113128662109 374.0166320800781 C 145.2473754882812 374.4117126464844 135.3491668701172 375.3216552734375 133.4060974121094 374.0166320800781 C 131.4630279541016 372.710693359375 121.5072326660156 372.7791442871094 121.8428802490234 369.2133483886719 C 122.177734375 365.6466369628906 121.8428802490234 357.8094177246094 121.8428802490234 357.8094177246094 C 121.8428802490234 357.8094177246094 116.0352249145508 358.9262390136719 111.1482391357422 357.8094177246094 C 108.4010925292969 357.1810607910156 102.9309539794922 355.2802124023438 98.1219482421875 353.8745727539062 C 99.68523406982422 351.7919006347656 102.9130249023438 351.5606994628906 104.2587356567383 351.5606994628906 C 104.6187362670898 351.5606994628906 104.8383102416992 351.5760498046875 104.9165954589844 351.5814208984375 L 119.0825958251953 340.3494262695312 C 119.1023788452148 340.3368530273438 121.968879699707 338.6484069824219 125.5580902099609 337.0212097167969 C 131.6258850097656 334.2699279785156 135.2528839111328 333.6929931640625 137.2275238037109 333.6929931640625 C 137.2850952148438 333.6929931640625 137.3426666259766 333.6929931640625 137.3993835449219 333.6939086914062 C 142.6415100097656 333.8126220703125 147.3248748779297 331.9406127929688 150.7032318115234 330.6059875488281 L 150.7643737792969 330.5816955566406 C 151.8146667480469 330.1668395996094 152.7228088378906 329.8094787597656 153.5148010253906 329.5611267089844 C 154.9361572265625 329.1163940429688 156.0804901123047 329.189697265625 157.9040985107422 329.4063415527344 L 158.2793731689453 329.4504089355469 C 158.4018096923828 329.4656982421875 158.5287322998047 329.4791870117188 158.6583099365234 329.4936218261719 C 159.8705902099609 329.6286315917969 161.3925170898438 329.7654113769531 163.4922332763672 329.7654113769531 C 164.9546661376953 329.7654113769531 166.5873107910156 329.6970520019531 168.3458862304688 329.5602111816406 C 168.6649475097656 329.5355529785156 168.9732360839844 329.5143432617188 169.2699432373047 329.4966430664062 C 170.5044555664062 331.9918518066406 170.8945159912109 333.4358520507812 170.8820953369141 339.6906433105469 C 170.8677368164062 347.4197692871094 166.6062316894531 357.6276245117188 168.2495880126953 360.09814453125 C 169.5186614990234 362.005859375 170.6846618652344 373.8471984863281 170.9283142089844 379.9673461914062 C 169.6054534912109 380.0613403320312 168.5996704101562 380.125 168.0597381591797 380.15283203125 C 164.7098693847656 380.3256530761719 161.3025512695312 383.14990234375 158.1353759765625 380.15283203125 C 155.1324462890625 377.3102722167969 157.6800231933594 373.9862670898438 152.5271606445312 373.9862060546875 M 187.0218048095703 340.1684875488281 L 187.0308074951172 340.1684875488281 C 189.5103149414062 339.7059020996094 190.0260162353516 339.609619140625 190.0890197753906 339.4826965332031 C 190.1060943603516 339.4503479003906 190.0890197753906 339.4161376953125 190.0638122558594 339.3639221191406 C 189.9837341308594 339.201904296875 189.8495941162109 338.9319152832031 190.8333129882812 338.2326354980469 C 192.2705993652344 337.2084045410156 195.0488739013672 336.5361328125 198.2655181884766 335.7557678222656 L 198.3222351074219 335.7431945800781 C 200.6091003417969 335.1879272460938 203.2002410888672 334.5596923828125 205.7643127441406 333.6939086914062 C 208.2185974121094 332.8668518066406 211.4333801269531 332.4464721679688 215.3178100585938 332.4464721679688 C 219.2660980224609 332.4464721679688 223.8732299804688 332.9019165039062 227.9565277099609 333.6939086914062 C 229.0068054199219 333.8991394042969 230.0643005371094 333.9989929199219 231.1893005371094 333.9989929199219 C 232.7498779296875 333.9989929199219 234.2295227050781 333.8027648925781 235.6623077392578 333.6129150390625 L 235.7243804931641 333.6047668457031 C 237.1788024902344 333.4122009277344 238.6827392578125 333.2114868164062 240.3080902099609 333.2114868164062 C 241.7418060302734 333.2114868164062 243.1026000976562 333.3699035644531 244.4678802490234 333.6939086914062 C 246.3318023681641 334.1357727050781 248.5692291259766 334.3599243164062 251.1188812255859 334.3599243164062 C 252.3356628417969 334.3599243164062 253.5244445800781 334.3089294433594 254.5938110351562 334.2397766113281 L 254.5938110351562 350.1882019042969 C 254.5938110351562 350.1882019042969 256.2490234375 364.7550659179688 257.0171508789062 373.0399169921875 C 255.4640197753906 373.3339233398438 253.8621673583984 373.6522827148438 252.1962432861328 374.0166320800781 C 243.7640991210938 375.8606872558594 240.3368835449219 376.6563415527344 230.9238128662109 376.7544250488281 C 227.6125946044922 376.7886657714844 222.8255920410156 376.5906372070312 217.8477325439453 376.3935546875 C 208.6731262207031 376.0299377441406 198.849609375 375.6654052734375 196.4232330322266 376.7544250488281 C 195.0653076171875 377.3634948730469 191.3984527587891 377.9553527832031 187.1183013916016 378.4704284667969 C 187.2253723144531 374.6669921875 187.2020874023438 370.389404296875 186.723876953125 367.9074096679688 C 185.7185974121094 362.6883544921875 188.7003021240234 348.0183410644531 186.723876953125 345.0644836425781 C 186.1142425537109 344.1534118652344 185.6334533691406 342.4671325683594 185.2722320556641 340.4674072265625 C 185.5270233154297 340.4386901855469 185.7881622314453 340.3994140625 186.0543060302734 340.3494262695312 L 187.0218048095703 340.1684875488281 M 266.1238098144531 335.1058349609375 C 266.5892333984375 335.3090515136719 267.0498657226562 335.5323486328125 267.4935302734375 335.7746887207031 C 268.1613159179688 336.1391906738281 269.5086059570312 336.3164978027344 271.6137390136719 336.3164978027344 C 273.5172424316406 336.3164978027344 275.8041076660156 336.1752014160156 278.0154418945312 336.0393371582031 L 278.0621643066406 336.03662109375 C 280.2276000976562 335.9024963378906 282.2723693847656 335.7746887207031 283.9805908203125 335.7746887207031 C 286.9415893554688 335.7746887207031 291.3084411621094 336.4254150390625 295.5321044921875 337.0536193847656 L 295.6553649902344 337.0716247558594 C 298.7613220214844 337.5332641601562 301.9725341796875 338.0103454589844 304.65087890625 338.231689453125 C 306.8217468261719 338.4117126464844 309.4541625976562 338.8257141113281 312.2450866699219 339.2639770507812 L 312.2838134765625 339.270263671875 C 316.4283142089844 339.9201354980469 320.7132263183594 340.591552734375 323.9640197753906 340.591552734375 C 325.0674438476562 340.591552734375 326.0025329589844 340.510498046875 326.7431640625 340.3494262695312 C 327.4630126953125 340.1995239257812 327.8457641601562 340.3192138671875 328.0248107910156 340.6761169433594 C 328.3083190917969 341.2431335449219 328.1112365722656 342.7776184082031 325.5623779296875 346.8734741210938 C 324.0648193359375 349.2809753417969 322.5248718261719 351.3528442382812 322.3539428710938 351.5814208984375 L 322.3539428710938 355.3071899414062 C 321.0984497070312 355.9886169433594 319.55859375 356.8141174316406 317.6757507324219 357.8094177246094 C 309.3372192382812 362.2158508300781 303.3729248046875 369.5824279785156 299.6469421386719 369.2133483886719 C 295.9218444824219 368.8442687988281 281.7774047851562 366.9192199707031 274.5953674316406 369.2133483886719 C 274.2360229492188 369.328125 273.8770141601562 369.4388427734375 273.5193786621094 369.5458374023438 C 273.0739440917969 367.1834106445312 272.3413696289062 363.9260559082031 271.2015075683594 360.4302062988281 C 268.9533081054688 353.5353393554688 265.1831665039062 336.8556213378906 266.1138000488281 335.1249084472656 C 266.1171569824219 335.1187133789062 266.1204528808594 335.1123352050781 266.1238098144531 335.1058349609375 M 340.2045288085938 346.4019165039062 C 342.4608154296875 346.4019165039062 345.2940368652344 348.1452026367188 347.7933044433594 349.683349609375 L 347.80322265625 349.6896362304688 C 349.0433654785156 350.451904296875 350.2142944335938 351.1728515625 351.1755065917969 351.5814208984375 C 353.330078125 352.4984741210938 355.3262939453125 354.5496215820312 356.1417236328125 356.6861877441406 C 356.661865234375 358.046142578125 356.661865234375 359.3501892089844 356.1435241699219 360.4562683105469 C 355.5207214355469 361.781982421875 353.3553161621094 363.5208435058594 350.3502502441406 365.1084289550781 C 347.1624755859375 366.7907409667969 343.9466857910156 367.8126831054688 342.9927368164062 367.4249877929688 C 341.9887084960938 367.0087585449219 336.8988037109375 368.1741027832031 332.6750183105469 369.2946166992188 C 332.2947998046875 365.0442810058594 330.2135314941406 359.0089111328125 328.8433837890625 355.3992004394531 C 329.3685913085938 354.9291381835938 329.8365783691406 354.478759765625 330.2028198242188 354.0753479003906 L 330.3315124511719 353.9340515136719 C 332.5005187988281 351.5436401367188 335.4705200195312 348.270263671875 338.7492370605469 346.7079162597656 C 339.1712951660156 346.5054016113281 339.6609497070312 346.4019165039062 340.2045288085938 346.4019165039062 M 107.1575927734375 258.5816955566406 C 107.62109375 258.7796936035156 108.0747375488281 259.0262756347656 108.504020690918 259.3152160644531 C 112.3838806152344 261.89013671875 115.7472381591797 266.805908203125 116.0217361450195 268.3836364746094 C 116.1333084106445 269.0279846191406 116.7417373657227 270.3564147949219 117.512092590332 272.0376281738281 L 117.5355224609375 272.0871276855469 C 119.1923751831055 275.6942749023438 121.6953048706055 281.1456298828125 121.6655960083008 285.1011352539062 C 121.6503067016602 287.2007751464844 121.8293762207031 288.8766174316406 122.0030899047852 290.4966430664062 L 122.004020690918 290.5074157714844 C 122.3118057250977 293.3874206542969 122.5773086547852 295.8741149902344 121.6655960083008 299.6666870117188 C 120.9500961303711 302.6429748535156 120.5757369995117 305.159423828125 120.2453765869141 307.3796997070312 L 120.2400207519531 307.4121398925781 C 119.908805847168 309.6396179199219 119.6225967407227 311.5638427734375 119.0825958251953 313.3521423339844 C 118.8458786010742 314.1351318359375 118.5903091430664 315.0819091796875 118.2923812866211 316.1817016601562 L 118.233024597168 316.4058532714844 C 117.1962356567383 320.2398376464844 115.7768783569336 325.4921875 113.7338790893555 329.5611267089844 C 111.6783065795898 333.6524963378906 110.8773040771484 334.08447265625 109.4228820800781 334.8675537109375 L 109.3815231323242 334.8891296386719 C 108.980094909668 335.1059875488281 108.479736328125 335.3769226074219 107.8848037719727 335.7746887207031 C 106.8840179443359 336.4443359375 105.2873764038086 338.4107666015625 103.4388046264648 340.6896362304688 L 103.4243774414062 340.7066955566406 C 101.3613052368164 343.2488403320312 98.96816253662109 346.1980590820312 96.49445343017578 348.5398559570312 C 96.51944732666016 345.031982421875 96.53580474853516 341.5794067382812 96.46737670898438 340.1253356933594 C 96.33152008056641 337.25341796875 96.44037628173828 325.6686401367188 96.46737670898438 322.4241333007812 C 96.49437713623047 319.1804809570312 95.56473541259766 302.4207153320312 96.46737670898438 297.9999084472656 C 97.36923217773438 293.5799865722656 96.104736328125 286.2486267089844 96.46737670898438 282.2751159667969 C 96.63130950927734 280.475341796875 96.97351837158203 274.0833435058594 97.15087890625 266.8270568847656 C 99.32002258300781 264.9911193847656 103.1499481201172 261.7826232910156 107.1575927734375 258.5816955566406 M 265.93603515625 231.6861267089844 L 271.2303161621094 231.6969146728516 C 273.7727966308594 232.8561248779297 286.6005249023438 238.6772766113281 289.4328002929688 239.501708984375 C 292.4577331542969 240.3819122314453 301.9382934570312 246.5837707519531 306.8063659667969 250.5699157714844 C 307.9763793945312 251.5274810791016 308.5173034667969 252.5634155273438 308.4147338867188 253.6487731933594 C 308.1852416992188 256.0814819335938 304.7958068847656 257.9796447753906 304.65087890625 258.0596923828125 L 298.2357482910156 266.2083435058594 L 298.2249450683594 266.2064819335938 C 297.4940795898438 266.1147155761719 293.6240844726562 265.6116333007812 289.2195129394531 264.7349853515625 C 281.2131042480469 263.1447143554688 277.7112426757812 261.5796203613281 276.1830139160156 260.5481872558594 C 274.3154602050781 259.2871398925781 270.7795104980469 258.5665588378906 266.1806030273438 258.5018310546875 C 266.1068725585938 256.1274719238281 266.0676574707031 254.4366302490234 266.1138000488281 253.9934844970703 C 266.2928771972656 252.2652740478516 265.6396789550781 237.1272735595703 265.93603515625 231.6861267089844 M 255.6387329101562 230.7419891357422 C 255.8143005371094 230.7419891357422 255.9818115234375 230.7519836425781 256.1410217285156 230.7699127197266 C 255.6670227050781 240.3120574951172 254.5938110351562 247.9626312255859 254.5938110351562 247.9626312255859 C 254.5938110351562 247.9626312255859 254.3463745117188 254.4484100341797 254.3291625976562 259.7438354492188 C 253.4000244140625 260.0054016113281 252.7572326660156 260.2824096679688 252.5022430419922 260.5472717285156 C 252.2465972900391 260.8136901855469 251.8533020019531 260.9478454589844 251.3340148925781 260.9478454589844 C 249.0425872802734 260.9478454589844 244.9305267333984 258.3549194335938 244.4678802490234 258.0596923828125 L 227.9565277099609 262.9026184082031 L 227.0277404785156 262.4229125976562 C 229.3092346191406 259.0514831542969 232.2027435302734 254.9132690429688 233.0280151367188 254.3436279296875 C 234.5373077392578 253.3041229248047 240.0795288085938 248.4126281738281 240.7383117675781 244.5579223632812 C 241.1072998046875 242.3997039794922 241.4033813476562 242.2259826660156 242.0523071289062 241.8471374511719 C 242.577880859375 241.5392761230469 243.2979431152344 241.1181335449219 244.4678802490234 239.5026245117188 C 247.1543731689453 235.7909851074219 248.8230285644531 233.8109893798828 252.5022430419922 231.6861267089844 C 253.5876007080078 231.0597076416016 254.643310546875 230.7419891357422 255.6387329101562 230.7419891357422 M 205.2683715820312 257.9454040527344 C 201.6665954589844 257.9454040527344 199.1123809814453 257.984130859375 197.676025390625 258.0596923828125 C 197.0523071289062 258.0911865234375 196.4618835449219 258.1236267089844 195.6996002197266 258.1659240722656 L 195.6330261230469 258.1694946289062 C 194.0445251464844 258.2576904296875 192.6728820800781 258.3341979980469 191.5478820800781 258.3341979980469 C 190.3590240478516 258.3341979980469 189.4617309570312 258.2523498535156 188.5455169677734 258.0596923828125 C 187.9535980224609 257.9351196289062 186.5313110351562 257.8315734863281 184.6434478759766 257.763916015625 C 184.6513824462891 256.0067749023438 184.6238861083984 254.7121276855469 184.5350952148438 254.1321258544922 C 184.301025390625 252.6035614013672 184.3094482421875 240.4372711181641 184.3720245361328 229.0654144287109 C 184.9283142089844 229.3018493652344 185.4741668701172 229.5679931640625 186.0435180664062 229.8456268310547 L 186.0660247802734 229.8564147949219 C 187.4367370605469 230.5232696533203 188.8542327880859 231.213623046875 190.8333129882812 231.6861267089844 C 194.2805938720703 232.5146636962891 196.3041229248047 232.4410095214844 200.0502319335938 232.1414947509766 L 200.0835266113281 232.1388397216797 C 202.0302429199219 231.9849090576172 204.4520874023438 231.7923431396484 208.0070953369141 231.6861267089844 C 208.4913024902344 231.6726226806641 208.9647369384766 231.6644897460938 209.4128723144531 231.6644897460938 C 214.2243041992188 231.6644897460938 215.2620239257812 232.5302734375 216.83251953125 233.8416290283203 C 218.0070190429688 234.8226318359375 219.4695281982422 236.0429840087891 223.0695190429688 237.3066253662109 C 226.2690277099609 238.4271240234375 227.4975280761719 238.8059844970703 227.8773040771484 238.9149169921875 L 227.8403778076172 238.9067687988281 C 227.7522735595703 238.8878326416016 227.4392547607422 238.8502197265625 227.4128723144531 238.9347076416016 C 227.3832397460938 239.025634765625 227.5658721923828 239.2172698974609 227.9565277099609 239.5026245117188 C 230.2938079833984 241.2071990966797 230.6168823242188 248.0337066650391 230.2407379150391 250.5707702636719 C 230.0157318115234 252.0918426513672 227.7683715820312 257.5466918945312 225.9243011474609 261.8541259765625 L 218.52001953125 258.0579223632812 C 217.30859375 258.0399169921875 210.97802734375 257.9454040527344 205.2683715820312 257.9454040527344 M 166.7088012695312 229.1157073974609 L 166.7223052978516 229.1157073974609 C 167.9684448242188 229.1039123535156 169.1913146972656 229.0922088623047 170.3682403564453 229.0611267089844 C 170.7313079833984 231.6551361083984 170.9360961914062 233.7731323242188 170.8820953369141 234.7064819335938 C 170.7617340087891 236.8020629882812 170.8696594238281 256.0247802734375 170.8811645507812 258.0019836425781 C 170.7468109130859 258.020263671875 170.6244506835938 258.0394897460938 170.5148773193359 258.0596923828125 C 169.9200286865234 258.1694946289062 169.0650177001953 258.2226257324219 167.9013061523438 258.2226257324219 C 166.4460144042969 258.2226257324219 164.6630859375 258.1371154785156 163.3572387695312 258.0741271972656 L 163.1726684570312 258.0659790039062 C 161.7173767089844 257.9976196289062 160.2135162353516 257.9256286621094 158.9543762207031 257.9256286621094 C 157.9770202636719 257.9256286621094 157.2678070068359 257.9696960449219 156.7872314453125 258.0596923828125 C 156.4128112792969 258.1281433105469 155.643310546875 258.1604919433594 154.4345855712891 258.1604919433594 C 152.3303833007812 258.1604919433594 149.2200164794922 258.0614929199219 146.2113037109375 257.9661254882812 L 145.4652404785156 257.9426879882812 C 141.8013000488281 257.8274841308594 138.2850189208984 257.7239990234375 135.5318756103516 257.7239990234375 C 132.7113037109375 257.7239990234375 131.0823059082031 257.8337707519531 130.5503845214844 258.0596923828125 C 129.9203796386719 258.3279113769531 127.1708755493164 258.4646911621094 122.3793106079102 258.4646911621094 C 117.8063812255859 258.4646911621094 112.5215911865234 258.3359985351562 109.7783813476562 258.2586364746094 L 109.7460250854492 258.2576904296875 C 108.9360198974609 258.2343444824219 108.2960968017578 258.2154235839844 107.6435928344727 258.1947021484375 C 114.3630218505859 252.8478393554688 119.080810546875 249.5024871826172 121.6655960083008 248.2514801025391 C 127.6200180053711 245.3714904785156 128.6135864257812 244.36083984375 131.9085235595703 241.0137023925781 L 132.0903015136719 240.8292083740234 C 132.4593048095703 240.4539184570312 132.9183044433594 239.9877014160156 133.4033813476562 239.5026245117188 C 135.9170989990234 236.9852752685547 139.0572357177734 236.0646362304688 142.3818054199219 235.0889892578125 C 145.1060943603516 234.2916259765625 147.9222412109375 233.4681243896484 150.5115203857422 231.6861267089844 C 154.0746002197266 229.2371978759766 160.4970245361328 229.1751251220703 166.7088012695312 229.1157073974609 M 104.4837341308594 258.0534057617188 L 104.4845962524414 258.0534057617188 C 104.5998077392578 258.0534057617188 104.7447357177734 258.0560607910156 104.9165954589844 258.0596923828125 C 105.137092590332 258.0632629394531 105.3728790283203 258.0849304199219 105.6185913085938 258.1236267089844 C 104.5800247192383 258.0822143554688 104.3550186157227 258.0651245117188 104.3487396240234 258.0579223632812 C 104.3505249023438 258.0579223632812 104.3640213012695 258.0534057617188 104.4837341308594 258.0534057617188 M 113.3172378540039 227.7918395996094 C 114.7698059082031 227.7918395996094 116.1972351074219 227.9232025146484 117.8523101806641 228.0744171142578 L 117.9207382202148 228.0807037353516 C 119.6262359619141 228.2354888916016 121.5593795776367 228.4101257324219 124.0245208740234 228.4992065429688 C 126.2420959472656 228.5774841308594 127.4085235595703 228.8781280517578 127.4913101196289 229.3893432617188 C 127.6398086547852 230.311767578125 124.0613784790039 231.6726226806641 124.0245208740234 231.6861267089844 L 121.6655960083008 239.501708984375 L 97.26045227050781 257.1517639160156 C 97.23602294921875 251.5165557861328 97.02423858642578 246.3328399658203 96.46737670898438 243.31591796875 C 95.76373291015625 239.5052032470703 95.79695129394531 235.0446319580078 96.00252532958984 231.0426330566406 C 99.30873870849609 230.4081268310547 104.3096618652344 229.4059143066406 107.8848037719727 228.4992065429688 C 109.8080902099609 228.0104827880859 111.483024597168 227.7918395996094 113.3172378540039 227.7918395996094 M 266.1387329101562 138.5009918212891 L 272.9493103027344 138.5009918212891 L 277.5852355957031 143.7209930419922 L 282.5180969238281 150.6492004394531 L 282.5180969238281 159.1614227294922 L 277.5852355957031 159.1614227294922 C 277.5204467773438 159.1461334228516 271.1177978515625 157.5297088623047 270.8117980957031 155.8772735595703 C 270.5796508789062 154.6212005615234 268.0164489746094 152.2726287841797 266.7639465332031 151.1896362304688 C 266.4333801269531 149.2801971435547 266.1846008300781 147.259765625 266.1246032714844 145.3128509521484 L 266.1246032714844 143.2431945800781 C 266.1465148925781 141.4638366699219 266.1473083496094 139.8977661132812 266.1387329101562 138.5009918212891 M 234.0918121337891 138.1104125976562 L 254.0394439697266 138.1104125976562 L 251.2980194091797 151.5591278076172 C 250.82373046875 151.4151306152344 246.5307312011719 150.138916015625 241.9497375488281 149.4891357421875 C 237.3660278320312 148.8401947021484 231.4827423095703 146.5281372070312 230.8265991210938 146.2662048339844 L 224.3043060302734 142.7084808349609 L 234.0918121337891 138.1104125976562 M 221.9895172119141 117.3311996459961 L 221.9895172119141 117.3366317749023 C 221.9913024902344 117.5706329345703 222.0308837890625 123.1109848022461 221.9895172119141 125.3114852905273 C 221.9480895996094 127.5264129638672 218.8115997314453 137.8097686767578 218.7800903320312 137.9114837646484 C 218.7315216064453 137.9717712402344 213.8750915527344 143.8739929199219 211.2705230712891 144.0036315917969 C 210.5073089599609 144.0422668457031 209.1762390136719 144.0621337890625 207.3140869140625 144.0621337890625 C 204.1722412109375 144.0621337890625 200.5235900878906 144.0044860839844 200.5046691894531 144.0036315917969 L 194.8473052978516 144.0036315917969 L 203.2452392578125 133.5231323242188 L 211.2705230712891 125.3114852905273 L 221.9895172119141 117.3311996459961 M 184.2866668701172 114.7589874267578 L 196.6572418212891 114.7589874267578 L 199.2690277099609 117.5706329345703 L 201.6098785400391 126.2907028198242 L 196.6572418212891 132.9732055664062 L 191.6082305908203 139.3694915771484 L 184.2866668701172 139.3694915771484 L 186.5555877685547 132.9732055664062 L 184.2866668701172 126.291633605957 L 184.2866668701172 114.7589874267578 M 143.7417297363281 118.4264907836914 L 157.4288787841797 118.4264907836914 L 167.5808715820312 113.916633605957 L 170.5707397460938 113.916633605957 L 167.5808715820312 122.2569122314453 L 170.5707397460938 127.6956329345703 L 167.5808715820312 133.4448394775391 L 143.7417297363281 127.6956329345703 L 129.1365203857422 124.9587020874023 L 143.7417297363281 118.4264907836914 M 93.37823486328125 467.6723327636719 C 87.05486297607422 467.6723327636719 83.55486297607422 467.3754577636719 80.76126861572266 466.5624389648438 C 79.4749755859375 466.3973388671875 77.61360168457031 466.391845703125 75.57316589355469 466.391845703125 C 67.84387969970703 466.391845703125 58.18894958496094 467.0744934082031 58.18894958496094 467.0744934082031 L 56.52973556518555 467.1918334960938 L 10.1818790435791 460.1717834472656 L 8.750378608703613 448.9375 C 8.750378608703613 448.9375 6.374021530151367 430.2876892089844 5.990235805511475 426.186767578125 C 5.687521457672119 422.9448547363281 5.751021862030029 421.2662658691406 5.853093147277832 419.0360717773438 C 5.891429424285889 418.1994934082031 5.937278747558594 417.2286682128906 5.932247638702393 415.7899475097656 C 5.818161010742188 415.6009521484375 5.700605869293213 415.4226379394531 5.593092918395996 415.2469177246094 C 4.713950157165527 413.8104248046875 3.385307312011719 411.6395568847656 2.542593002319336 408.7685546875 C 1.221182942390442 404.2669372558594 1.858112573623657 400.4554443359375 2.248796224594116 398.4425354003906 C 1.234908580780029 394.3371276855469 1.4685298204422 390.8256530761719 1.8025221824646 388.3790893554688 C -1.417980551719666 384.0592346191406 -7.595376014709473 375.6215515136719 -4.893402099609375 365.83642578125 C -5.667224407196045 362.642578125 -6.441773414611816 357.9683532714844 -4.479784488677979 352.9398803710938 C -4.399930000305176 350.3369750976562 -4.752645969390869 344.9956665039062 -4.933835506439209 342.2520446777344 C -5.10292387008667 339.6916809082031 -5.233913421630859 337.7085266113281 -5.27140998840332 336.0386962890625 C -6.869207382202148 330.8521118164062 -7.56954288482666 328.161376953125 -7.836792469024658 326.287353515625 C -8.027949333190918 325.978759765625 -8.324685096740723 325.5390930175781 -8.766621589660645 324.9724731445312 C -15.08097839355469 316.8755493164062 -15.01097869873047 308.3931884765625 -14.98462104797363 305.1999816894531 C -15.61104965209961 294.3935546875 -6.048192501068115 284.58984375 5.912450313568115 283.6934204101562 C 6.69195032119751 283.5870666503906 8.994450569152832 282.790283203125 10.55759334564209 282.0626220703125 L 20.88187789916992 277.2567138671875 L 28.33295059204102 285.8875732421875 C 31.54437828063965 289.6410522460938 36.78916549682617 297.2262878417969 35.83395004272461 305.85498046875 L 35.58359146118164 307.8799133300781 C 35.52194976806641 308.6004943847656 35.60587692260742 309.0962829589844 35.72330856323242 309.8052062988281 C 36.78065872192383 316.1874084472656 35.11145401000977 321.6062927246094 33.14237213134766 325.77734375 C 43.54437255859375 327.9966125488281 48.61052322387695 330.3195495605469 51.26964950561523 332.00732421875 C 53.81098556518555 332.4958190917969 59.09939575195312 332.913330078125 62.42487716674805 333.1759033203125 C 64.77974700927734 333.3618469238281 66.98635101318359 333.5360412597656 69.02476501464844 333.7455749511719 C 69.01973724365234 332.2982788085938 69.00363159179688 331.107666015625 68.96981048583984 330.4594116210938 C 68.87808990478516 329.0202026367188 68.88587951660156 326.8641967773438 68.92951965332031 324.0258483886719 C 68.96845245361328 321.5005493164062 69.01980590820312 318.2783508300781 68.94402313232422 314.3659973144531 C 68.85916137695312 309.9539794921875 68.88902282714844 304.3463439941406 68.92152404785156 298.640625 C 68.94623565673828 294.2960510253906 68.97180938720703 289.892333984375 68.94166564941406 285.954833984375 C 68.91730499267578 282.7293395996094 69.18295288085938 278.472412109375 69.48487854003906 273.9617004394531 C 69.80473327636719 269.1837768554688 70.4000244140625 260.2901306152344 69.82488250732422 257.6722106933594 C 68.6004638671875 254.7867431640625 68.00528717041016 251.9326019287109 67.80576324462891 249.2640380859375 C 63.36170196533203 251.3430633544922 57.31774139404297 252.0859069824219 52.91537857055664 252.2901306152344 L 33.01359176635742 253.2133483886719 L 37.61966323852539 233.8323516845703 C 38.07423782348633 232.2292022705078 38.88287734985352 229.6545562744141 40.14737701416016 226.9492034912109 C 42.62546920776367 221.6485290527344 45.88734436035156 217.8571624755859 49.87197875976562 215.6345062255859 C 50.30149459838867 215.1196441650391 50.97296905517578 214.263427734375 51.91752243041992 212.9200592041016 C 52.77052688598633 211.7073516845703 53.56192779541016 210.5011749267578 54.1732177734375 209.5432281494141 L 56.55202102661133 199.6879119873047 C 57.15423583984375 197.4003448486328 59.75430679321289 187.5747680664062 60.43759155273438 184.5610656738281 C 60.43545150756836 183.9747009277344 60.25352096557617 179.5346984863281 60.15580749511719 177.1494140625 C 59.95016479492188 172.1049194335938 59.86909484863281 169.5929870605469 60.25238037109375 167.18212890625 C 60.36880874633789 166.4600524902344 60.56523513793945 165.5163421630859 60.74995040893555 164.6858367919922 C 60.83797454833984 164.2862854003906 60.95697784423828 163.8312225341797 61.06217575073242 163.351318359375 C 59.2783088684082 160.3766326904297 56.51120376586914 155.0640258789062 52.1180305480957 145.0785980224609 L 44.2465934753418 132.263916015625 L 43.762451171875 131.0340576171875 C 43.67502212524414 130.8165588378906 43.21987915039062 129.7280578613281 42.53544998168945 128.5357666015625 C 42.24302291870117 128.0260162353516 42.00335311889648 127.6657791137695 41.83319854736328 127.4290008544922 C 38.39458847045898 125.3923950195312 35.42295455932617 122.6411972045898 33.1839485168457 119.4102020263672 C 31.11459350585938 116.4262008666992 30.23216438293457 113.8603439331055 29.94894981384277 112.8959121704102 L 21.77509307861328 85.06069946289062 L 67.827880859375 100.875129699707 L 68.53190612792969 101.194221496582 C 68.3040771484375 97.12079620361328 69.39274597167969 93.33586883544922 71.24489593505859 90.12822723388672 C 71.29305267333984 89.86533355712891 71.34731292724609 89.60134124755859 71.40779113769531 89.33675384521484 C 71.02542877197266 86.53398895263672 70.77126312255859 82.87599182128906 71.75009155273438 78.54491424560547 C 71.93780517578125 77.29013061523438 71.70095062255859 72.93184661865234 71.57373809814453 70.59034729003906 C 71.39466094970703 67.29398345947266 71.28323364257812 64.27241516113281 71.4105224609375 62.2432746887207 L 72.65644836425781 42.38884353637695 L 91.40223693847656 49.04805755615234 C 94.42430877685547 50.12163162231445 104.702522277832 53.87334442138672 110.0783081054688 57.07698822021484 C 112.7074737548828 58.64438629150391 114.872917175293 60.72959136962891 116.4533996582031 63.15390014648438 C 116.4367141723633 63.07246017456055 116.4200286865234 62.99118041992188 116.4032669067383 62.90969467163086 L 107.0975112915039 47.6729621887207 L 73.04409027099609 11.57991600036621 L 115.9583053588867 18.01498794555664 C 123.0591659545898 19.07977294921875 129.2166595458984 19.93905830383301 134.1638793945312 20.62898635864258 C 144.3092346191406 22.04561805725098 149.6527404785156 22.81133270263672 153.283447265625 23.72393989562988 C 153.2762298583984 23.4118766784668 153.2678680419922 23.11332893371582 153.25830078125 22.83255767822266 C 153.0488586425781 16.68078231811523 154.8037109375 12.25395488739014 156.1958312988281 9.570679664611816 C 156.1900024414062 8.120474815368652 156.1301574707031 5.714533805847168 155.9441680908203 1.72613000869751 L 155.8920288085938 0.5448442697525024 L 155.2763824462891 -16.39365577697754 L 172.1640167236328 -14.94515609741211 C 177.3992309570312 -14.49608421325684 190.28466796875 -12.43265533447266 196.8494567871094 -2.993798494338989 C 197.8978118896484 -1.486584305763245 198.7943725585938 -0.4859414398670197 199.5105285644531 0.329487144947052 C 201.1796569824219 2.229915618896484 203.4656677246094 4.832630157470703 204.9238739013672 8.849129676818848 C 205.5838012695312 10.66691589355469 206.9568786621094 14.44905853271484 205.7661590576172 27.93412971496582 L 205.1985626220703 34.36241912841797 C 205.3926544189453 34.44401931762695 205.585205078125 34.52407836914062 205.7760162353516 34.60248565673828 C 210.6065216064453 36.58734512329102 212.5618743896484 36.83462905883789 212.5811004638672 36.8369140625 C 219.6764526367188 37.58684539794922 226.7845153808594 39.78055953979492 227.5716705322266 40.02820205688477 L 234.3270874023438 42.15384292602539 L 235.3720245361328 44.74179840087891 L 234.9092407226562 41.67748641967773 L 267.7487487792969 41.67748641967773 L 285.09130859375 53.95277404785156 L 286.036865234375 60.28248596191406 C 287.0989379882812 67.39205932617188 287.1162414550781 72.40484619140625 286.6799926757812 75.98579406738281 C 287.5193176269531 77.55271148681641 288.2836608886719 79.34665679931641 288.7530212402344 81.44755554199219 C 289.0906066894531 82.95861053466797 289.2278442382812 84.36957550048828 289.2171020507812 85.67626190185547 C 292.4281311035156 87.11220550537109 295.6844177246094 88.73300170898438 297.2558898925781 89.69355773925781 C 299.8797302246094 91.29913330078125 302.6519470214844 93.57920074462891 307.7536010742188 103.7492752075195 C 312.2658081054688 112.7479858398438 313.0378723144531 116.9936294555664 313.2064514160156 119.6873474121094 C 313.3238220214844 121.5684127807617 313.2340087890625 124.546272277832 313.0896606445312 127.698486328125 C 312.9880981445312 129.9399108886719 312.8024597167969 134.0094146728516 312.9688720703125 135.3189086914062 C 314.1487121582031 140.9230651855469 312.5577087402344 149.8325042724609 311.1599426269531 155.8263092041016 L 318.7037963867188 159.0247802734375 L 320.5272216796875 160.6363372802734 C 327.3883666992188 166.7004852294922 331.6159362792969 172.4427032470703 333.0924377441406 177.7034912109375 C 336.7375183105469 190.6826324462891 339.9427490234375 201.5802001953125 340.7131652832031 203.6130523681641 C 341.0875854492188 204.5661315917969 342.2526550292969 207.5321960449219 343.7587280273438 216.3563385009766 C 344.1686706542969 218.7554931640625 345.1309509277344 224.7187042236328 345.1998901367188 228.2013397216797 C 345.2241516113281 229.4291229248047 345.2809448242188 232.3031311035156 343.419677734375 240.4944152832031 C 341.6605224609375 248.213134765625 340.60302734375 250.3646240234375 340.2049560546875 251.174560546875 C 339.9446716308594 251.7050628662109 338.9749450683594 253.6269226074219 337.7742004394531 255.9998779296875 C 338.1002197265625 256.3809814453125 338.41650390625 256.7748107910156 338.7227478027344 257.1812133789062 C 339.6661376953125 258.4334106445312 340.5973205566406 259.8886108398438 341.3785705566406 261.5247497558594 C 351.9985961914062 263.142578125 363.837158203125 265.5661926269531 365.4017333984375 265.8891296386719 L 385.2344360351562 270.9394836425781 L 404.3401794433594 280.1584167480469 L 406.3894653320312 282.5607604980469 C 406.8976745605469 283.156494140625 408.6890869140625 285.3467102050781 410.4025268554688 288.515625 C 412.2253112792969 291.8883361816406 414.4145812988281 297.2328491210938 414.5013732910156 303.5556945800781 L 414.5166625976562 304.6669006347656 C 414.6185302734375 311.9044799804688 414.7322998046875 320.7235717773438 414.48974609375 326.531982421875 C 414.1540832519531 334.5661315917969 409.9298706054688 340.6899108886719 407.4059448242188 344.3486938476562 C 407.2698059082031 344.5465087890625 407.1363830566406 344.7365417480469 407.0089721679688 344.9197998046875 C 406.4282836914062 347.1879577636719 405.2348022460938 350.6681213378906 402.7132263183594 355.9949951171875 C 398.4365844726562 365.0189208984375 395.55615234375 368.2139892578125 392.5460205078125 370.2368469238281 C 391.93310546875 370.6493530273438 377.275390625 380.478759765625 370.5670166015625 382.0357055664062 L 368.3385314941406 382.6077880859375 C 364.3047485351562 383.6701965332031 358.4431762695312 385.2154846191406 352.9076538085938 385.8589782714844 C 350.9646606445312 386.0860595703125 346.2563781738281 387.1254272460938 341.3698425292969 388.3272399902344 C 338.7366638183594 393.8340759277344 333.6912536621094 399.3240051269531 323.3409423828125 403.5458374023438 C 323.0074462890625 403.6818542480469 322.7367248535156 403.8058776855469 322.5204772949219 403.9133911132812 C 322.4902648925781 404.2835998535156 322.47900390625 404.6484680175781 322.4514465332031 405.0005493164062 C 322.1426391601562 408.9498901367188 321.4353637695312 417.9951782226562 312.8785400390625 423.5934753417969 C 311.4345092773438 425.9111022949219 309.7867126464844 432.1837463378906 309.0580139160156 434.957275390625 C 308.4375915527344 437.3192138671875 307.8770141601562 439.3658447265625 307.3671569824219 440.8338317871094 C 306.3499450683594 443.7638549804688 305.9085083007812 447.3977661132812 305.8538208007812 448.14013671875 L 304.8630981445312 461.5774230957031 L 291.4006652832031 462.0286254882812 C 291.4006652832031 462.0286254882812 287.8770141601562 462.1467590332031 285.0149536132812 462.1468505859375 C 283.4910583496094 462.1468505859375 282.0848693847656 462.0861206054688 281.0335388183594 462.0034484863281 C 279.8444213867188 462.0079345703125 278.017822265625 462.07275390625 275.8711547851562 462.1437072753906 L 274.1699523925781 462.1994934082031 C 270.8393859863281 462.3073425292969 267.0899353027344 462.4126281738281 263.9145812988281 462.4126281738281 C 259.9952697753906 462.4126281738281 257.3857116699219 462.2599487304688 255.2913513183594 461.8863525390625 C 253.6733856201172 461.9163818359375 251.5303344726562 462.1011352539062 249.0184478759766 462.2945556640625 L 246.6368713378906 462.4760437011719 C 242.0318145751953 462.8196411132812 236.7218017578125 463.1539916992188 231.4851684570312 463.154052734375 C 225.1667327880859 463.1541442871094 219.8930969238281 462.677978515625 215.3629455566406 461.6982727050781 C 213.0830383300781 461.2047729492188 211.7396697998047 461.0831909179688 211.0935668945312 461.0573425292969 C 209.7879028320312 461.6263427734375 207.4714050292969 462.4606323242188 204.4688720703125 462.4606323242188 C 203.2613372802734 462.4606323242188 201.7770538330078 462.322021484375 200.1518859863281 461.86865234375 C 196.5757598876953 462.3008117675781 189.5378723144531 463.6527099609375 185.0464477539062 464.5154113769531 C 176.3200988769531 466.1916198730469 171.6098785400391 467.0682678222656 168.2470245361328 467.1102600097656 L 163.6154479980469 467.1954040527344 C 157.51123046875 467.3161926269531 147.6104431152344 467.5110473632812 139.7628784179688 467.5110473632812 C 131.5875549316406 467.5110473632812 128.2200164794922 467.3121948242188 126.034797668457 466.9408264160156 C 125.6190872192383 466.9236755371094 125.093879699707 466.9226379394531 124.4801635742188 466.9226379394531 C 121.3055191040039 466.9226379394531 116.5878753662109 467.082763671875 111.5273818969727 467.2500610351562 L 110.3307342529297 467.28955078125 C 104.4564514160156 467.4825439453125 98.27359008789062 467.6723327636719 93.37823486328125 467.6723327636719 Z M 204.5901641845703 361.0292663574219 C 208.6743011474609 361.0292663574219 213.6425170898438 361.2151184082031 218.4418029785156 361.4053344726562 C 223.2633056640625 361.5965576171875 227.2023010253906 361.7582702636719 230.1373748779297 361.7582702636719 C 234.9232177734375 361.71044921875 237.7183990478516 361.52099609375 240.7054595947266 361.0457153320312 C 240.1567687988281 355.9903564453125 239.6914520263672 351.8970642089844 239.6897430419922 351.8817138671875 L 239.5938110351562 351.0376892089844 L 239.5938110351562 348.2786865234375 C 238.8176574707031 348.3092651367188 238.2661285400391 348.3991088867188 237.72509765625 348.4707641601562 C 235.5677337646484 348.7565612792969 233.4350280761719 348.9989929199219 231.1893005371094 348.9989929199219 C 229.0630950927734 348.9989929199219 227.0650939941406 348.8034057617188 225.0800933837891 348.4155578613281 C 221.959228515625 347.8102111816406 218.3021697998047 347.4464721679688 215.3178100585938 347.4464721679688 C 212.0206604003906 347.4464721679688 210.6948089599609 347.8612060546875 210.5545196533203 347.9084777832031 C 207.7686309814453 348.84912109375 204.9519805908203 349.5657958984375 202.4166717529297 350.1845397949219 C 202.3762054443359 352.7388305664062 202.1532592773438 355.4653015136719 201.9134521484375 358.3980712890625 C 201.8508148193359 359.1642456054688 201.7736511230469 360.1080932617188 201.7033843994141 361.0649719238281 C 202.6034393310547 361.0408020019531 203.5632629394531 361.0292663574219 204.5901641845703 361.0292663574219 Z M 138.0881195068359 359.6935729980469 C 138.241943359375 359.6947631835938 138.4015502929688 359.6947631835938 138.5660858154297 359.6947631835938 C 141.2778778076172 359.6947631835938 144.6939544677734 359.4477844238281 147.7259521484375 359.2412109375 L 151.1461639404297 359.0166320800781 L 152.5273742675781 358.9862060546875 C 152.6408843994141 358.9862060546875 152.7588653564453 358.9871215820312 152.8803253173828 358.9890747070312 C 152.7937622070312 355.2796325683594 153.6394500732422 351.5386047363281 154.4699554443359 347.8654174804688 C 154.6756744384766 346.95556640625 154.8979187011719 345.9726867675781 155.1038208007812 344.9930419921875 C 151.0778350830078 346.5593566894531 144.9989471435547 348.6966247558594 137.7575988769531 348.6966247558594 C 137.6285858154297 348.6918334960938 137.2066497802734 348.7276000976562 136.4186553955078 348.9329833984375 L 136.8292388916016 357.1691284179688 C 136.8495635986328 357.6451110839844 136.8788146972656 358.3849487304688 136.9070129394531 359.2941284179688 C 137.2994384765625 359.4145202636719 137.6934204101562 359.5468139648438 138.0881195068359 359.6935729980469 Z M 284.6601257324219 353.1074829101562 C 289.306396484375 353.128173828125 293.9005126953125 353.5242614746094 297.22900390625 353.8667602539062 C 297.6699829101562 353.516357421875 298.1333618164062 353.139404296875 298.6236572265625 352.7533569335938 C 298.662353515625 352.7228698730469 298.7012329101562 352.6922607421875 298.7401428222656 352.66162109375 C 297.0098571777344 352.4342346191406 295.2145080566406 352.1708984375 293.4501037597656 351.9086303710938 C 290.1718444824219 351.4213562011719 285.9015502929688 350.7862854003906 284.0310974121094 350.7748718261719 C 284.2416076660156 351.5849914550781 284.4525451660156 352.3684692382812 284.6601257324219 353.1074829101562 Z M 117.6689758300781 81.14431762695312 L 118.8595275878906 82.77676391601562 C 118.8041305541992 81.25271606445312 118.7256011962891 79.69195556640625 118.6562347412109 78.42522430419922 C 118.3790054321289 79.39107513427734 118.0410614013672 80.29962921142578 117.6689758300781 81.14431762695312 Z" stroke="none" fill="#111"/>
    </g>
  </g>
</svg>
